<svg width="60" height="60" viewBox="0 0 60 60" fill="none" xmlns="http://www.w3.org/2000/svg">
<g clip-path="url(#clip0)">
<path d="M56.631 28.64C56.2013 28.4546 55.7028 28.5427 55.3625 28.8638C52.6417 31.4318 49.6495 32.6802 46.2148 32.6802H38.9897C36.4773 32.6802 34.311 34.1814 33.3394 36.3317C32.9968 36.248 32.6576 36.1669 32.3242 36.0871C31.3672 35.8581 30.4497 35.6386 29.6202 35.4011V33.6098C33.477 31.7053 36.2729 27.9741 36.8647 23.5559H37.6879C39.981 23.5559 41.8465 21.6933 41.8465 19.4041C41.8465 17.2281 40.1609 15.439 38.025 15.2669C40.3778 11.5616 41.4715 7.82428 39.9949 2.77338C39.893 2.42522 39.6357 2.14385 39.2979 2.01131C38.9604 1.87889 38.5802 1.91018 38.2689 2.09615C36.5102 3.14674 34.3789 3.17018 33.2656 2.65842C29.2666 0.823496 21.0323 -2.95569 15.7629 4.15244C13.3062 4.48186 11.6897 5.66381 10.9538 7.671C10.3046 9.44194 10.4075 11.5868 10.5164 13.8576C10.5385 14.3169 10.5603 14.7846 10.5762 15.2522H9.88973C7.5986 15.2522 5.7345 17.1148 5.7345 19.4042C5.7345 21.6935 7.59848 23.556 9.88973 23.556H10.7163C11.3081 27.9742 14.1038 31.7055 17.9607 33.6099V35.4012C17.1234 35.6411 16.1966 35.8623 15.2296 36.0934C13.4373 36.5216 11.4059 37.0069 9.53372 37.7244C4.84762 39.5195 2.79239 42.5665 2.66161 47.9127C2.66137 47.9223 2.66125 47.9318 2.66125 47.9414V54.7652C2.66125 55.4124 3.1859 55.9371 3.83325 55.9371H16.1359C16.7832 55.9371 17.3079 55.4125 17.3079 54.7652C17.3079 54.1179 16.7833 53.5932 16.1359 53.5932H12.267V47.1109C12.267 46.4637 11.7423 45.9389 11.095 45.9389C10.4478 45.9389 9.92301 46.4636 9.92301 47.1109V53.5932H5.005V47.9559C5.11575 43.5498 6.57157 41.369 10.3722 39.9132C12.1004 39.2508 13.968 38.8046 15.7741 38.3732C16.6035 38.175 17.4043 37.9837 18.1609 37.7785C18.8293 40.2571 21.0993 42.0871 23.7904 42.0871C26.4816 42.0871 28.7516 40.257 29.42 37.7784C30.1682 37.9813 30.9593 38.1707 31.7791 38.3669C32.1147 38.4471 32.4562 38.5289 32.8 38.6128C32.7966 38.6968 32.7936 38.7807 32.7936 38.8654V40.5863C32.7936 43.5967 34.9599 46.1104 37.8179 46.6589V53.5933H26.6872C26.0399 53.5933 25.5152 54.1179 25.5152 54.7653C25.5152 55.4125 26.0398 55.9373 26.6872 55.9373H37.8223C37.913 58.1928 39.7785 60 42.0597 60C44.3986 60 46.3015 58.1003 46.3015 55.7651V46.7723C49.7038 46.7931 52.6684 48.0411 55.362 50.5871C55.584 50.797 55.8735 50.9073 56.1673 50.9073C56.3238 50.9073 56.4815 50.8761 56.6307 50.8117C57.0605 50.6266 57.339 50.2034 57.339 49.7354V29.7161C57.339 29.2483 57.0607 28.8252 56.631 28.64ZM39.5027 19.4042C39.5027 20.4011 38.6886 21.2121 37.688 21.2121H36.9821V17.5961H37.688C38.6886 17.5961 39.5027 18.4073 39.5027 19.4042ZM16.5044 6.4301C16.8586 6.40209 17.181 6.21494 17.3809 5.92127C21.197 0.315371 27.0766 2.39744 32.2874 4.78842C33.8993 5.52928 36.1161 5.49705 38.075 4.77319C38.8643 8.77924 37.6359 11.789 35.3459 15.0606C34.7881 14.768 33.9859 14.1301 33.1727 13.0292C32.5916 12.2446 31.9225 11.4934 30.9699 11.3114C30.0872 11.1427 29.2846 11.5096 28.4745 11.9324C27.2855 12.5496 25.2281 13.0332 23.7904 13.0332C22.3539 13.0332 20.2945 12.5494 19.1052 11.9337C18.2927 11.5095 17.49 11.1427 16.6088 11.3117C15.6579 11.4937 14.9891 12.2447 14.4072 13.0306C13.8779 13.7472 13.3534 14.2662 12.8973 14.6233C12.8848 14.3283 12.8713 14.0349 12.8575 13.7454C12.6307 9.01713 12.691 6.73104 16.5044 6.4301ZM8.07825 19.4042C8.07825 18.4073 8.89083 17.5961 9.88961 17.5961H10.5988V21.2121H9.88961C8.89083 21.2121 8.07825 20.4011 8.07825 19.4042ZM12.9427 21.8028V17.3172C14.0593 16.8514 15.2514 15.8326 16.2918 14.424C16.8313 13.6955 17.0306 13.6193 17.048 13.6137C17.1133 13.6065 17.3274 13.6494 18.0242 14.0131C19.5503 14.8034 21.9753 15.3769 23.7905 15.3769C25.6076 15.3769 28.0318 14.8032 29.5568 14.0113C30.2526 13.6482 30.4677 13.6075 30.5286 13.6132C30.5495 13.6193 30.7486 13.6942 31.2883 14.4229C32.3294 15.8324 33.5218 16.8514 34.6383 17.3172V21.8028C34.6383 26.2646 31.917 30.104 28.0432 31.757C28.0114 31.7687 27.9802 31.7819 27.9497 31.7962C26.6682 32.3289 25.2633 32.6236 23.7906 32.6236C22.3179 32.6236 20.9131 32.3288 19.6315 31.7962C19.6011 31.7817 19.5699 31.7687 19.538 31.757C15.664 30.1041 12.9427 26.2647 12.9427 21.8028ZM23.7904 39.7431C21.8682 39.7431 20.3043 38.1839 20.3043 36.2673V34.5001C21.4152 34.8043 22.584 34.9676 23.7904 34.9676C24.9968 34.9676 26.1656 34.8043 27.2765 34.5001V36.2673C27.2765 38.1839 25.7126 39.7431 23.7904 39.7431ZM35.1375 40.5862V38.8653C35.1375 36.7472 36.8657 35.0241 38.9899 35.0241H45.0431V44.4272H38.9899C36.8657 44.4273 35.1375 42.7042 35.1375 40.5862ZM42.0597 57.6562C41.0132 57.6562 40.1618 56.8079 40.1618 55.7651V46.7713H43.9577V55.7651C43.9575 56.8079 43.1062 57.6562 42.0597 57.6562ZM54.9951 47.2469C52.6716 45.5845 50.1583 44.6679 47.3869 44.4687V34.9825C50.1564 34.7833 52.6691 33.8663 54.9951 32.2029V47.2469Z" fill="white"/>
<path d="M21.4098 53.5933C20.7626 53.5933 20.2378 54.1179 20.2378 54.7653C20.2378 55.4125 20.7624 55.9372 21.4098 55.9372H21.4165C22.0637 55.9372 22.5851 55.4126 22.5851 54.7653C22.5851 54.1179 22.057 53.5933 21.4098 53.5933Z" fill="white"/>
</g>
<defs>
<clipPath id="clip0">
<rect width="60" height="60" fill="white"/>
</clipPath>
</defs>
</svg>
