<svg width="299" height="289" viewBox="0 0 299 289" fill="none" xmlns="http://www.w3.org/2000/svg">
<g filter="url(#filter0_d)">
<path d="M111.413 11.2667C52.6908 78.8547 14.9521 165.231 8.36409 260.147C7.95743 266.247 12.7561 271.371 18.8561 271.371H233.007C238.212 271.371 242.685 267.548 243.417 262.343C248.135 230.216 260.741 200.773 279.285 175.885C282.376 171.737 281.969 165.881 278.309 162.221L126.704 10.6973C122.475 6.38665 115.399 6.63065 111.413 11.2667Z" fill="#20A93B"/>
<path d="M232.925 273.729H18.7747C15.196 273.729 11.6987 272.265 9.25872 269.581C6.81872 266.979 5.59872 263.481 5.84272 259.903C9.09605 213.136 19.9134 167.508 38.0507 124.483C55.6187 82.6773 79.6934 44.044 109.543 9.63999C111.901 6.95599 115.236 5.32933 118.815 5.248C122.393 5.08533 125.891 6.46799 128.412 9.07066L279.855 160.513C284.328 164.987 284.897 172.307 281.075 177.349C262.449 202.4 250.168 231.924 245.695 262.668C244.8 268.931 239.269 273.729 232.925 273.729ZM113.203 12.812C52.6094 82.596 17.148 168.159 10.7227 260.228C10.56 262.505 11.2921 264.62 12.8374 266.247C14.3827 267.873 16.4974 268.849 18.7747 268.849H232.925C236.911 268.849 240.327 265.84 240.896 261.936C245.532 230.297 258.057 200.041 277.171 174.34C279.529 171.168 279.204 166.695 276.357 163.848L124.996 12.4053C123.369 10.7787 121.255 9.96533 118.977 10.0467C116.781 10.128 114.748 11.104 113.203 12.812Z" fill="white"/>
</g>
<path d="M116.131 62.832C116.131 66.492 115.317 69.3386 113.609 71.2093C111.901 73.1613 109.624 74.056 106.696 74.056C103.768 74.056 101.491 73.08 99.7826 71.2093C98.0746 69.2573 97.2613 66.492 97.2613 62.832V56.6506C97.2613 52.9906 98.0746 50.144 99.7826 48.2733C101.491 46.3213 103.768 45.4266 106.696 45.4266C109.624 45.4266 111.901 46.4026 113.609 48.2733C115.317 50.2253 116.131 52.9906 116.131 56.6506V62.832ZM110.6 56.1626C110.6 53.9666 110.275 52.34 109.624 51.2826C108.973 50.2253 107.997 49.7373 106.777 49.7373C105.476 49.7373 104.581 50.2253 103.931 51.2826C103.28 52.34 102.955 53.9666 102.955 56.1626V63.4013C102.955 65.6786 103.28 67.3053 103.931 68.2813C104.581 69.3386 105.557 69.8266 106.859 69.8266C108.079 69.8266 109.055 69.3386 109.705 68.2813C110.356 67.224 110.681 65.5973 110.681 63.4013V56.1626H110.6Z" fill="white"/>
<path d="M138.985 73.7306H119.953V70.0706L128.981 60.392C130.283 58.928 131.177 57.6266 131.747 56.5693C132.316 55.512 132.56 54.6173 132.56 53.7226C132.56 52.584 132.235 51.608 131.584 50.876C130.933 50.144 130.039 49.7373 128.9 49.7373C127.599 49.7373 126.623 50.144 125.972 51.0386C125.321 51.9333 124.996 53.072 124.996 54.536H119.547V54.4546C119.465 51.9333 120.279 49.8186 122.068 48.0293C123.776 46.3213 126.135 45.4266 129.063 45.4266C131.909 45.4266 134.187 46.1586 135.813 47.704C137.44 49.168 138.253 51.2013 138.253 53.7226C138.253 55.4306 137.765 56.976 136.871 58.3586C135.976 59.8226 134.431 61.6933 132.316 63.9706L127.355 69.42V69.5013H139.067V73.7306H138.985Z" fill="white"/>
<defs>
<filter id="filter0_d" x="0.812073" y="0.235107" width="297.8" height="288.494" filterUnits="userSpaceOnUse" color-interpolation-filters="sRGB">
<feFlood flood-opacity="0" result="BackgroundImageFix"/>
<feColorMatrix in="SourceAlpha" type="matrix" values="0 0 0 0 0 0 0 0 0 0 0 0 0 0 0 0 0 0 127 0"/>
<feOffset dx="5" dy="5"/>
<feGaussianBlur stdDeviation="5"/>
<feColorMatrix type="matrix" values="0 0 0 0 0 0 0 0 0 0 0 0 0 0 0 0 0 0 0.25 0"/>
<feBlend mode="normal" in2="BackgroundImageFix" result="effect1_dropShadow"/>
<feBlend mode="normal" in="SourceGraphic" in2="effect1_dropShadow" result="shape"/>
</filter>
</defs>
</svg>
