<svg width="290" height="298" viewBox="0 0 290 298" fill="none" xmlns="http://www.w3.org/2000/svg">
<g filter="url(#filter0_d)">
<path d="M11.4626 125.939L162.905 277.381C166.565 281.041 172.421 281.529 176.569 278.357C201.457 259.813 230.981 247.207 263.027 242.489C268.232 241.757 272.055 237.284 272.055 232.079V18.0093C272.055 11.9093 266.931 7.11069 260.831 7.51735C165.915 14.1867 79.6199 51.9254 11.9506 110.567C7.39594 114.552 7.23326 121.628 11.4626 125.939Z" fill="#FEB335"/>
<path d="M170.388 282.912C167.053 282.912 163.719 281.611 161.197 279.171L9.75463 127.647C7.2333 125.125 5.85062 121.628 5.93195 118.049C6.09462 114.471 7.63996 111.055 10.324 108.777C44.728 78.928 83.3613 54.8533 125.167 37.2853C168.192 19.2293 213.82 8.33067 260.587 5.07733C264.165 4.83333 267.663 6.05334 270.265 8.49334C272.868 10.9333 274.413 14.4307 274.413 18.0093V232.16C274.413 238.504 269.615 244.035 263.271 245.011C232.445 249.484 202.921 261.765 177.952 280.391C175.756 282.017 173.072 282.831 170.388 282.912ZM261.644 9.95734C261.481 9.95734 261.237 9.95734 261.075 9.95734C169.005 16.3827 83.4426 51.844 13.6586 112.437C11.9506 113.901 10.9746 115.935 10.8933 118.212C10.812 120.489 11.6253 122.604 13.252 124.231L164.613 275.673C167.46 278.52 171.933 278.845 175.105 276.487C200.807 257.373 231.063 244.767 262.701 240.212C266.687 239.643 269.615 236.227 269.615 232.241V18.0093C269.615 15.732 268.72 13.6173 267.012 12.072C265.548 10.6893 263.677 9.95734 261.644 9.95734Z" fill="white"/>
</g>
<path d="M233.584 41.1902C233.584 44.8502 232.771 47.6968 231.063 49.5675C229.355 51.5195 227.077 52.4142 224.149 52.4142C221.221 52.4142 218.944 51.4382 217.236 49.5675C215.528 47.6155 214.715 44.8502 214.715 41.1902V35.0088C214.715 31.3488 215.528 28.5022 217.236 26.6315C218.944 24.6795 221.221 23.7849 224.149 23.7849C227.077 23.7849 229.355 24.7609 231.063 26.6315C232.771 28.5835 233.584 31.3488 233.584 35.0088V41.1902ZM227.972 34.4395C227.972 32.2435 227.647 30.6168 226.996 29.5595C226.345 28.5022 225.369 28.0142 224.149 28.0142C222.848 28.0142 221.953 28.5022 221.303 29.5595C220.652 30.6168 220.327 32.2435 220.327 34.4395V41.6782C220.327 43.9555 220.652 45.5822 221.303 46.5582C221.953 47.6155 222.929 48.1035 224.231 48.1035C225.451 48.1035 226.427 47.6155 227.077 46.5582C227.728 45.5008 228.053 43.8742 228.053 41.6782V34.4395H227.972Z" fill="white"/>
<path d="M242.937 35.74H246.109C247.411 35.74 248.387 35.4147 249.037 34.6827C249.688 33.9507 250.013 33.056 250.013 31.7547C250.013 30.616 249.688 29.7213 249.037 29.0707C248.387 28.42 247.492 28.0133 246.272 28.0133C245.215 28.0133 244.32 28.3387 243.588 28.908C242.856 29.5587 242.531 30.2907 242.531 31.348H237.081V31.2667C237 29.0707 237.813 27.2813 239.603 25.8173C241.392 24.4347 243.507 23.7027 246.109 23.7027C249.037 23.7027 251.315 24.3533 253.023 25.736C254.731 27.1187 255.625 29.0707 255.625 31.6733C255.625 32.8933 255.219 34.032 254.487 35.1707C253.755 36.228 252.697 37.1227 251.315 37.692C252.86 38.2613 254.08 39.0747 254.893 40.2133C255.707 41.352 256.113 42.6533 256.113 44.1987C256.113 46.72 255.219 48.7533 253.348 50.2173C251.477 51.6813 249.119 52.4133 246.191 52.4133C243.588 52.4133 241.392 51.7627 239.521 50.38C237.651 48.9973 236.756 47.0453 236.837 44.524V44.4427H242.287C242.287 45.5 242.693 46.3947 243.425 47.1267C244.157 47.8587 245.133 48.184 246.353 48.184C247.655 48.184 248.631 47.8587 249.444 47.1267C250.176 46.3947 250.583 45.4187 250.583 44.1987C250.583 42.7347 250.176 41.6773 249.444 40.9453C248.712 40.2947 247.655 39.888 246.191 39.888H243.019V35.74H242.937Z" fill="white"/>
<defs>
<filter id="filter0_d" x="0.928558" y="0.0466919" width="288.485" height="297.865" filterUnits="userSpaceOnUse" color-interpolation-filters="sRGB">
<feFlood flood-opacity="0" result="BackgroundImageFix"/>
<feColorMatrix in="SourceAlpha" type="matrix" values="0 0 0 0 0 0 0 0 0 0 0 0 0 0 0 0 0 0 127 0"/>
<feOffset dx="5" dy="5"/>
<feGaussianBlur stdDeviation="5"/>
<feColorMatrix type="matrix" values="0 0 0 0 0 0 0 0 0 0 0 0 0 0 0 0 0 0 0.25 0"/>
<feBlend mode="normal" in2="BackgroundImageFix" result="effect1_dropShadow"/>
<feBlend mode="normal" in="SourceGraphic" in2="effect1_dropShadow" result="shape"/>
</filter>
</defs>
</svg>
