<svg width="299" height="289" viewBox="0 0 299 289" fill="none" xmlns="http://www.w3.org/2000/svg">
<g filter="url(#filter0_d)">
<path d="M162.307 10.6973L10.864 162.14C7.20401 165.8 6.716 171.656 9.888 175.804C28.432 200.692 41.0387 230.216 45.756 262.261C46.488 267.467 50.9614 271.289 56.1667 271.289H270.317C276.417 271.289 281.216 266.165 280.809 260.065C274.14 165.149 236.401 78.8546 177.76 11.1853C173.612 6.63064 166.536 6.38665 162.307 10.6973Z" fill="#20A93B"/>
<path d="M270.236 273.729H56.0854C49.7414 273.729 44.2107 268.931 43.2347 262.587C38.7613 231.761 26.48 202.237 7.85467 177.187C4.032 172.063 4.60134 164.824 9.07467 160.351L160.517 8.90798C163.039 6.38665 166.536 5.00397 170.115 5.08531C173.693 5.24797 177.109 6.79331 179.387 9.47731C209.236 43.8813 233.311 82.5146 250.879 124.32C268.935 167.345 279.833 212.973 283.087 259.74C283.331 263.319 282.111 266.816 279.671 269.419C277.231 272.265 273.815 273.729 270.236 273.729ZM169.708 10.0466C167.512 10.0466 165.56 10.86 164.015 12.4053L12.572 163.848C9.72538 166.695 9.40004 171.168 11.7587 174.34C30.872 200.041 43.4787 230.297 48.0334 261.936C48.6027 265.921 52.0187 268.849 56.004 268.849H270.155C272.432 268.849 274.547 267.955 276.092 266.247C277.637 264.62 278.369 262.424 278.207 260.228C271.781 168.159 236.32 82.596 175.727 12.812C174.263 11.104 172.229 10.128 169.952 10.0466C169.871 10.0466 169.789 10.0466 169.708 10.0466Z" fill="white"/>
</g>
<path d="M167.431 62.8328C167.431 66.4928 166.617 69.3395 164.909 71.2102C163.201 73.1622 160.924 74.0568 157.996 74.0568C155.068 74.0568 152.791 73.0808 151.083 71.2102C149.375 69.2582 148.561 66.4928 148.561 62.8328V56.6515C148.561 52.9915 149.375 50.1448 151.083 48.2742C152.791 46.3222 155.068 45.4275 157.996 45.4275C160.924 45.4275 163.201 46.4035 164.909 48.2742C166.617 50.2262 167.431 52.9915 167.431 56.6515V62.8328ZM161.819 56.1635C161.819 53.9675 161.493 52.3408 160.843 51.2835C160.192 50.2262 159.216 49.7381 157.996 49.7381C156.695 49.7381 155.8 50.2262 155.149 51.2835C154.499 52.3408 154.173 53.9675 154.173 56.1635V63.4022C154.173 65.6795 154.499 67.3062 155.149 68.2822C155.8 69.3395 156.776 69.8275 158.077 69.8275C159.297 69.8275 160.273 69.3395 160.924 68.2822C161.575 67.2248 161.9 65.5982 161.9 63.4022V56.1635H161.819Z" fill="white"/>
<path d="M182.451 55.71C184.149 55.71 185.643 56.0773 186.935 56.812C188.227 57.5213 189.228 58.5347 189.937 59.852C190.647 61.144 191.001 62.6387 191.001 64.336C191.001 66.1093 190.596 67.68 189.785 69.048C188.975 70.3907 187.809 71.442 186.289 72.202C184.769 72.9367 183.009 73.304 181.007 73.304C179.31 73.304 177.638 73.0253 175.991 72.468C174.345 71.8853 172.989 71.1127 171.925 70.15L173.559 66.578C176.017 68.4527 178.525 69.39 181.083 69.39C182.781 69.39 184.073 68.972 184.959 68.136C185.871 67.2747 186.327 66.0587 186.327 64.488C186.327 62.9933 185.859 61.8027 184.921 60.916C184.009 60.004 182.781 59.548 181.235 59.548C180.171 59.548 179.171 59.7507 178.233 60.156C177.296 60.536 176.473 61.106 175.763 61.866H172.799V45.944H189.747V49.744H177.587V57.116C178.955 56.1787 180.577 55.71 182.451 55.71Z" fill="white"/>
<defs>
<filter id="filter0_d" x="0.317566" y="0.0819092" width="297.8" height="288.647" filterUnits="userSpaceOnUse" color-interpolation-filters="sRGB">
<feFlood flood-opacity="0" result="BackgroundImageFix"/>
<feColorMatrix in="SourceAlpha" type="matrix" values="0 0 0 0 0 0 0 0 0 0 0 0 0 0 0 0 0 0 127 0"/>
<feOffset dx="5" dy="5"/>
<feGaussianBlur stdDeviation="5"/>
<feColorMatrix type="matrix" values="0 0 0 0 0 0 0 0 0 0 0 0 0 0 0 0 0 0 0.25 0"/>
<feBlend mode="normal" in2="BackgroundImageFix" result="effect1_dropShadow"/>
<feBlend mode="normal" in="SourceGraphic" in2="effect1_dropShadow" result="shape"/>
</filter>
</defs>
</svg>
