<svg width="299" height="290" viewBox="0 0 299 290" fill="none" xmlns="http://www.w3.org/2000/svg">
<g filter="url(#filter0_d)">
<path d="M232.925 8.10925H18.7747C12.6747 8.10925 7.87601 13.2332 8.28267 19.3332C14.952 114.249 52.6907 200.544 111.332 268.213C115.317 272.768 122.393 273.012 126.704 268.701L278.147 117.34C281.807 113.68 282.295 107.824 279.123 103.676C260.579 78.7879 247.972 49.2639 243.255 17.2186C242.604 12.0133 238.131 8.10925 232.925 8.10925Z" fill="#87CB1E"/>
<path d="M119.303 274.232C119.14 274.232 118.977 274.232 118.815 274.232C115.236 274.069 111.82 272.524 109.543 269.84C79.6934 235.436 55.6187 196.803 38.0507 154.997C19.9947 111.972 9.09605 66.3439 5.84272 19.5773C5.59872 15.9986 6.81872 12.5013 9.25872 9.89864C11.6987 7.29597 15.196 5.75061 18.7747 5.75061H232.925C239.269 5.75061 244.8 10.5493 245.776 16.8933C250.249 47.7186 262.531 77.2426 281.156 102.212C284.979 107.336 284.409 114.575 279.936 119.048L128.493 270.409C126.053 272.849 122.719 274.232 119.303 274.232ZM18.7747 10.5493C16.4974 10.5493 14.3827 11.444 12.8374 13.152C11.2921 14.7786 10.56 16.9746 10.7227 19.1706C17.148 111.24 52.6094 196.803 113.203 266.587C114.667 268.295 116.7 269.271 118.977 269.352C121.255 269.433 123.369 268.62 124.996 266.993L276.439 115.551C279.285 112.704 279.611 108.231 277.252 105.059C258.139 79.3573 245.532 49.1013 240.977 17.4626C240.408 13.4773 236.992 10.5493 233.007 10.5493H18.7747Z" fill="white"/>
</g>
<path d="M45.94 36.9013C45.94 40.5613 45.1267 43.408 43.4187 45.2787C41.7107 47.2307 39.4333 48.1254 36.5053 48.1254C33.5773 48.1254 31.3 47.1494 29.592 45.2787C27.884 43.3267 27.0707 40.5613 27.0707 36.9013V30.72C27.0707 27.06 27.884 24.2134 29.592 22.3427C31.3 20.3907 33.5773 19.496 36.5053 19.496C39.4333 19.496 41.7107 20.472 43.4187 22.3427C45.1267 24.2947 45.94 27.06 45.94 30.72V36.9013ZM40.4093 30.1507C40.4093 27.9547 40.084 26.328 39.4333 25.2707C38.7827 24.2133 37.8067 23.7254 36.5867 23.7254C35.2853 23.7254 34.3907 24.2133 33.74 25.2707C33.0893 26.328 32.764 27.9547 32.764 30.1507V37.3894C32.764 39.6667 33.0893 41.2934 33.74 42.2694C34.3907 43.3267 35.3667 43.8147 36.668 43.8147C37.888 43.8147 38.864 43.3267 39.5147 42.2694C40.1653 41.212 40.4907 39.5854 40.4907 37.3894V30.1507H40.4093Z" fill="white"/>
<path d="M62.3694 47.8H56.7574V24.7827H51.064V20.7974L62.3694 19.8214V47.8Z" fill="white"/>
<defs>
<filter id="filter0_d" x="0.812073" y="0.75061" width="297.881" height="288.481" filterUnits="userSpaceOnUse" color-interpolation-filters="sRGB">
<feFlood flood-opacity="0" result="BackgroundImageFix"/>
<feColorMatrix in="SourceAlpha" type="matrix" values="0 0 0 0 0 0 0 0 0 0 0 0 0 0 0 0 0 0 127 0"/>
<feOffset dx="5" dy="5"/>
<feGaussianBlur stdDeviation="5"/>
<feColorMatrix type="matrix" values="0 0 0 0 0 0 0 0 0 0 0 0 0 0 0 0 0 0 0.25 0"/>
<feBlend mode="normal" in2="BackgroundImageFix" result="effect1_dropShadow"/>
<feBlend mode="normal" in="SourceGraphic" in2="effect1_dropShadow" result="shape"/>
</filter>
</defs>
</svg>
