<svg width="290" height="298" viewBox="0 0 290 298" fill="none" xmlns="http://www.w3.org/2000/svg">
<g filter="url(#filter0_d)">
<path d="M7.95599 18.0093V232.16C7.95599 237.365 11.7786 241.839 16.984 242.571C49.1106 247.288 78.5533 259.895 103.441 278.439C107.589 281.529 113.445 281.123 117.105 277.463L268.548 126.02C272.859 121.709 272.615 114.633 268.06 110.648C200.472 51.9253 114.096 14.1867 19.18 7.59867C13.08 7.11067 7.95599 11.9093 7.95599 18.0093Z" fill="#87CB1E"/>
<path d="M109.623 282.912C106.939 282.912 104.255 282.099 101.977 280.391C76.9267 261.765 47.4027 249.484 16.6587 245.011C10.3147 244.116 5.51602 238.585 5.51602 232.16V18.0093C5.51602 14.4307 6.98 10.9333 9.664 8.49334C12.2667 6.05334 15.764 4.83333 19.3427 5.07733C66.1094 8.33067 111.737 19.148 154.763 37.2853C196.568 54.8533 235.201 78.928 269.605 108.777C272.289 111.136 273.916 114.471 273.997 118.049C274.16 121.628 272.777 125.125 270.175 127.647L118.813 279.089C116.292 281.611 112.957 282.912 109.623 282.912ZM18.3667 9.95734C16.3333 9.95734 14.4627 10.6893 12.9173 12.1533C11.2907 13.6987 10.3147 15.8133 10.3147 18.0907V232.16C10.3147 236.145 13.324 239.561 17.228 240.131C48.8667 244.767 79.1227 257.292 104.824 276.405C107.996 278.764 112.469 278.439 115.316 275.592L266.759 124.149C268.385 122.523 269.199 120.408 269.117 118.131C269.036 115.853 268.06 113.82 266.352 112.356C196.568 51.7627 111.005 16.3013 18.936 9.876C18.7734 9.95733 18.6107 9.95734 18.3667 9.95734Z" fill="white"/>
</g>
<path d="M40.5706 41.1893C40.5706 44.8493 39.7573 47.696 38.0493 49.5667C36.3413 51.5187 34.064 52.4133 31.136 52.4133C28.208 52.4133 25.9307 51.4373 24.2227 49.5667C22.5147 47.6147 21.7013 44.8493 21.7013 41.1893V35.008C21.7013 31.348 22.5147 28.5013 24.2227 26.6307C25.9307 24.6787 28.208 23.784 31.136 23.784C34.064 23.784 36.3413 24.76 38.0493 26.6307C39.7573 28.5827 40.5706 31.348 40.5706 35.008V41.1893ZM34.9587 34.4387C34.9587 32.2427 34.6333 30.616 33.9826 29.5587C33.332 28.5013 32.356 28.0133 31.136 28.0133C29.8346 28.0133 28.94 28.5013 28.2893 29.5587C27.6387 30.616 27.3133 32.2427 27.3133 34.4387V41.6773C27.3133 43.9547 27.6387 45.5813 28.2893 46.5573C28.94 47.6147 29.916 48.1027 31.2173 48.1027C32.4373 48.1027 33.4133 47.6147 34.064 46.5573C34.7146 45.5 35.04 43.8733 35.04 41.6773V34.4387H34.9587Z" fill="white"/>
<path d="M60.7413 41.6773H63.9133V45.988H60.7413V52.088H55.1293V45.988H43.7426L43.4987 42.6533L55.0479 24.1093H60.6599V41.6773H60.7413ZM48.704 41.6773H55.1293V31.592H55.0479L54.6413 32.4053L48.704 41.6773Z" fill="white"/>
<defs>
<filter id="filter0_d" x="0.516022" y="0.0466919" width="288.494" height="297.865" filterUnits="userSpaceOnUse" color-interpolation-filters="sRGB">
<feFlood flood-opacity="0" result="BackgroundImageFix"/>
<feColorMatrix in="SourceAlpha" type="matrix" values="0 0 0 0 0 0 0 0 0 0 0 0 0 0 0 0 0 0 127 0"/>
<feOffset dx="5" dy="5"/>
<feGaussianBlur stdDeviation="5"/>
<feColorMatrix type="matrix" values="0 0 0 0 0 0 0 0 0 0 0 0 0 0 0 0 0 0 0.25 0"/>
<feBlend mode="normal" in2="BackgroundImageFix" result="effect1_dropShadow"/>
<feBlend mode="normal" in="SourceGraphic" in2="effect1_dropShadow" result="shape"/>
</filter>
</defs>
</svg>
