<svg width="299" height="290" viewBox="0 0 299 290" fill="none" xmlns="http://www.w3.org/2000/svg">
<g filter="url(#filter0_d)">
<path d="M45.6747 17.1372C40.9574 49.2639 28.3507 78.7066 9.80671 103.595C6.71604 107.743 7.12272 113.599 10.7827 117.259L162.307 268.701C166.617 273.012 173.693 272.768 177.679 268.213C236.401 200.625 274.14 114.249 280.728 19.3332C281.135 13.2332 276.336 8.10925 270.236 8.10925H56.0854C50.8801 8.10925 46.4067 12.0132 45.6747 17.1372Z" fill="#FEB335"/>
<path d="M169.708 274.232C166.292 274.232 162.957 272.849 160.517 270.409L9.15603 119.048C4.6827 114.575 4.11336 107.255 7.93603 102.212C26.5614 77.1613 38.8427 47.6373 43.316 16.8933C44.2107 10.5493 49.7414 5.75061 56.1667 5.75061H270.317C273.896 5.75061 277.393 7.21464 279.833 9.89864C282.273 12.5013 283.493 15.9986 283.249 19.5773C279.996 66.344 269.179 111.972 251.041 154.997C233.473 196.803 209.399 235.436 179.549 269.84C177.191 272.524 173.856 274.151 170.277 274.313C170.033 274.232 169.871 274.232 169.708 274.232ZM48.1147 17.5439C43.4787 49.1826 30.9534 79.4386 11.84 105.14C9.48136 108.312 9.80669 112.785 12.6534 115.632L164.096 267.075C165.723 268.701 167.837 269.515 170.115 269.433C172.392 269.352 174.425 268.376 175.889 266.668C236.483 196.884 271.944 111.321 278.369 19.252C278.532 16.9746 277.8 14.86 276.255 13.2333C274.709 11.6066 272.595 10.6306 270.317 10.6306H56.0854C52.1001 10.5493 48.684 13.5586 48.1147 17.5439Z" fill="white"/>
</g>
<path d="M244.291 36.9013C244.291 40.5613 243.477 43.408 241.769 45.2787C240.061 47.2307 237.784 48.1254 234.856 48.1254C231.928 48.1254 229.651 47.1494 227.943 45.2787C226.235 43.3267 225.421 40.5613 225.421 36.9013V30.72C225.421 27.06 226.235 24.2134 227.943 22.3427C229.651 20.3907 231.928 19.496 234.856 19.496C237.784 19.496 240.061 20.472 241.769 22.3427C243.477 24.2947 244.291 27.06 244.291 30.72V36.9013ZM238.679 30.1507C238.679 27.9547 238.353 26.328 237.703 25.2707C237.052 24.2133 236.076 23.7254 234.856 23.7254C233.555 23.7254 232.66 24.2133 232.009 25.2707C231.359 26.328 231.033 27.9547 231.033 30.1507V37.3894C231.033 39.6667 231.359 41.2934 232.009 42.2694C232.66 43.3267 233.636 43.8147 234.937 43.8147C236.157 43.8147 237.133 43.3267 237.784 42.2694C238.435 41.212 238.76 39.5854 238.76 37.3894V30.1507H238.679Z" fill="white"/>
<path d="M259.256 19.496C260.313 19.496 261.289 19.5773 262.184 19.8213C263.079 19.984 263.973 20.3094 264.868 20.716L263.892 24.7827C263.079 24.4574 262.265 24.2947 261.615 24.132C260.964 23.9694 260.151 23.888 259.337 23.888C257.629 23.888 256.247 24.5387 255.271 25.7587C254.213 27.0601 253.725 28.7681 253.807 31.0454L253.888 31.1267C254.539 30.476 255.271 29.988 256.247 29.5813C257.223 29.1747 258.28 29.0121 259.5 29.0121C262.021 29.0121 263.973 29.9067 265.356 31.696C266.739 33.4854 267.471 35.7627 267.471 38.4467C267.471 41.2934 266.576 43.5707 264.868 45.4414C263.16 47.2307 260.883 48.2067 258.117 48.2067C255.189 48.2067 252.749 47.2307 250.879 45.1974C249.008 43.164 248.113 40.3987 248.113 36.9014V31.4521C248.113 27.7921 249.171 24.864 251.285 22.7494C253.237 20.5534 256.003 19.496 259.256 19.496ZM257.955 33.3227C256.897 33.3227 256.003 33.4854 255.271 33.8107C254.539 34.136 253.969 34.624 253.563 35.1934V37.064C253.563 39.26 253.969 40.968 254.783 42.188C255.596 43.408 256.653 43.9774 257.955 43.9774C259.093 43.9774 260.069 43.4894 260.72 42.4321C261.452 41.3747 261.777 40.0734 261.777 38.6094C261.777 37.0641 261.452 35.844 260.72 34.868C260.069 33.8107 259.093 33.3227 257.955 33.3227Z" fill="white"/>
<defs>
<filter id="filter0_d" x="0.398926" y="0.75061" width="297.881" height="288.563" filterUnits="userSpaceOnUse" color-interpolation-filters="sRGB">
<feFlood flood-opacity="0" result="BackgroundImageFix"/>
<feColorMatrix in="SourceAlpha" type="matrix" values="0 0 0 0 0 0 0 0 0 0 0 0 0 0 0 0 0 0 127 0"/>
<feOffset dx="5" dy="5"/>
<feGaussianBlur stdDeviation="5"/>
<feColorMatrix type="matrix" values="0 0 0 0 0 0 0 0 0 0 0 0 0 0 0 0 0 0 0.25 0"/>
<feBlend mode="normal" in2="BackgroundImageFix" result="effect1_dropShadow"/>
<feBlend mode="normal" in="SourceGraphic" in2="effect1_dropShadow" result="shape"/>
</filter>
</defs>
</svg>
