<svg width="50" height="50" viewBox="0 0 50 50" fill="none" xmlns="http://www.w3.org/2000/svg">
<g clip-path="url(#clip0)">
<path d="M13.9737 6.56632C12.5988 6.56632 13.1834 6.54064 11.2487 6.69171C9.20435 6.85128 7.32876 7.80148 5.99605 9.30157C5.27241 10.116 4.1481 10.4455 3.1103 10.1139L2.15435 9.80831C2.15435 9.80831 1.66597 20.0355 4.61704 21.3218H23.4865V16.0769C23.4864 10.8236 19.2268 6.56642 13.9737 6.56632Z" fill="#FFE794"/>
<path d="M9.11467 32.7445V32.7416H6.22766C4.03118 32.7416 2.25061 34.5222 2.25061 36.7187V43.3313H23.4865V36.7188C23.4865 34.5223 21.706 32.7417 19.5095 32.7417H16.6224V32.7446H9.11467V32.7445Z" fill="#C6E0FF"/>
<path d="M9.10077 29.7454V32.7446C9.10077 34.8178 10.7813 36.4984 12.8545 36.4984C14.9276 36.4984 16.6083 34.8178 16.6083 32.7446C16.6083 31.6934 16.6083 30.761 16.6083 29.7454H9.10077Z" fill="#FFB09E"/>
<path d="M9.10077 32.7446C9.10077 32.9182 9.11356 33.0887 9.13632 33.2561C10.2751 33.768 11.5402 34.0533 12.8727 34.0533C14.1902 34.0533 15.4418 33.7743 16.5706 33.2733C16.5949 33.1005 16.6084 32.9241 16.6084 32.7446C16.6084 31.6934 16.6084 30.7609 16.6084 29.7454H9.10077V32.7446Z" fill="#FFA78F"/>
<path d="M8.44629 25.0722H3.80557C2.1083 25.0722 0.732422 23.6963 0.732422 21.999C0.732422 20.3018 2.1083 18.9259 3.80557 18.9259H8.44629V25.0722Z" fill="#FFB09E"/>
<path d="M17.2907 18.9259H21.9314C23.6287 18.9259 25.0046 20.3018 25.0046 21.999C25.0046 23.6963 23.6287 25.0722 21.9314 25.0722H17.2907V18.9259Z" fill="#FFA78F"/>
<path d="M3.83588 20.3059V23.6923C3.83588 28.6267 7.88187 32.6268 12.8729 32.6268C17.8639 32.6268 21.9099 28.6268 21.9099 23.6923V20.3059C21.9099 15.3715 17.8639 11.3713 12.8729 11.3713C7.88187 11.3713 3.83588 15.3714 3.83588 20.3059Z" fill="#FFCEBF"/>
<path d="M7.58112 26.6851H6.011C5.54078 26.6851 5.15973 26.304 5.15973 25.8338C5.15973 25.3636 5.54078 24.9825 6.011 24.9825H7.58112C8.05133 24.9825 8.43239 25.3636 8.43239 25.8338C8.43239 26.3039 8.05133 26.6851 7.58112 26.6851Z" fill="#FE8F83"/>
<path d="M13.1778 11.3775C12.8333 11.3873 12.4933 11.4145 12.1595 11.4613C16.5424 12.0777 19.9128 15.8023 19.9128 20.3058V23.6922C19.9128 28.1956 16.5425 31.9202 12.1595 32.5366C12.4933 32.5836 12.8334 32.6108 13.1778 32.6204C18.0274 32.4613 21.9097 28.5256 21.9097 23.6922V20.3058C21.9097 15.4725 18.0275 11.5367 13.1778 11.3775Z" fill="#FFB09E"/>
<path d="M14.3512 6.57578H12.7545C12.4948 6.59023 12.138 6.62226 11.2487 6.69169C9.27203 6.84599 7.45338 7.73954 6.13043 9.15449V13.1244C6.13043 16.3284 8.7278 18.9258 11.9318 18.9258H23.4864V16.0767C23.4864 10.9501 19.4295 6.77304 14.3512 6.57578Z" fill="#FFE794"/>
<path d="M14.3512 6.57578H12.7544C12.5357 6.58788 12.2467 6.61259 11.6301 6.66161C16.2506 7.31035 19.8063 11.2772 19.8063 16.0767V18.9258H23.4865V16.0767C23.4864 10.9501 19.4294 6.77304 14.3512 6.57578Z" fill="#FFD336"/>
<path d="M19.5095 32.7417H16.6224V32.7446H16.486C18.6293 32.8055 20.3483 34.5608 20.3483 36.7188V43.3314H23.4865V36.7188C23.4865 34.5223 21.7059 32.7417 19.5095 32.7417Z" fill="#C6E0FF"/>
<path d="M19.6982 26.6851H18.1281C17.6578 26.6851 17.2768 26.304 17.2768 25.8338C17.2768 25.3636 17.6578 24.9825 18.1281 24.9825H19.6982C20.1684 24.9825 20.5494 25.3636 20.5494 25.8338C20.5494 26.3039 20.1683 26.6851 19.6982 26.6851Z" fill="#FE8F83"/>
<path d="M30.1492 33.3077H29.7588C27.6391 33.3077 25.9208 35.0261 25.9208 37.1457V43.4351H45.4948V37.1457C45.4948 35.026 43.7764 33.3077 41.6568 33.3077H30.1492Z" fill="#FEB335"/>
<path d="M41.6566 33.3077H38.5132C40.6329 33.3077 42.3512 35.0261 42.3512 37.1457V43.4351H45.4946V37.1457C45.4947 35.026 43.7764 33.3077 41.6566 33.3077Z" fill="#FEB335"/>
<path d="M35.6949 37.3499C33.8486 37.3499 32.3519 35.8532 32.3519 34.0069V25.962H39.0378V34.0069C39.0379 35.8532 37.5412 37.3499 35.6949 37.3499Z" fill="#FFB09E"/>
<path d="M32.3519 33.531C33.3698 33.9899 34.5003 34.2476 35.6923 34.2476C36.8863 34.2476 38.0185 33.989 39.0379 33.5286V25.9621H32.352V33.531H32.3519Z" fill="#FFA78F"/>
<path d="M47.5967 34.3331H49.2674V29.733C49.2674 27.0464 47.0895 24.8685 44.4028 24.8685H42.7322V29.4686C42.7322 32.1552 44.9102 34.3331 47.5967 34.3331Z" fill="#5A5A5A"/>
<path d="M44.4028 24.8685H42.7322V25.0084C44.8593 25.5282 46.4383 27.4458 46.4383 29.733V34.1933C46.8097 34.284 47.1974 34.3332 47.5968 34.3332H49.2674V29.733C49.2674 27.0464 47.0895 24.8685 44.4028 24.8685Z" fill="#444444"/>
<path d="M23.7682 34.3331H22.0975V29.733C22.0975 27.0464 24.2755 24.8685 26.9621 24.8685H28.6328V29.4686C28.6328 32.1552 26.4549 34.3331 23.7682 34.3331Z" fill="#5A5A5A"/>
<path d="M31.7569 25.9621H27.6136C26.1009 25.9621 24.8745 24.7358 24.8745 23.223C24.8745 21.7103 26.1008 20.484 27.6136 20.484H31.7569V25.9621Z" fill="#FFB09E"/>
<path d="M39.6081 20.484H43.7515C45.2641 20.484 46.4905 21.7102 46.4905 23.223C46.4905 24.7357 45.2642 25.9621 43.7515 25.9621H39.6081V20.484Z" fill="#FFA78F"/>
<path d="M35.6921 13.7627C31.2428 13.7627 27.636 17.3251 27.636 21.7194V22.2572V24.7315C27.636 29.1259 31.2428 32.6882 35.6921 32.6882C40.1415 32.6882 43.7483 29.1258 43.7483 24.7315V21.7194C43.7484 17.3251 40.1415 13.7627 35.6921 13.7627Z" fill="#FFCEBF"/>
<path d="M35.6922 13.7627C35.2679 13.7627 34.8514 13.7956 34.4449 13.858C38.3018 14.4502 41.2537 17.7442 41.2537 21.7195V24.7316C41.2537 28.7069 38.3018 32.0008 34.4449 32.593C34.8514 32.6554 35.2679 32.6883 35.6922 32.6883C40.1416 32.6883 43.7484 29.126 43.7484 24.7316V21.7195C43.7485 17.3251 40.1416 13.7627 35.6922 13.7627Z" fill="#FFB09E"/>
<path d="M31.1788 27.6887H29.6453C29.1861 27.6887 28.8139 27.3165 28.8139 26.8572C28.8139 26.398 29.1861 26.0258 29.6453 26.0258H31.1788C31.6381 26.0258 32.0103 26.398 32.0103 26.8572C32.0103 27.3165 31.638 27.6887 31.1788 27.6887Z" fill="#FE8F83"/>
<path d="M41.77 27.6887H40.2365C39.7773 27.6887 39.4051 27.3165 39.4051 26.8572C39.4051 26.398 39.7773 26.0258 40.2365 26.0258H41.77C42.2293 26.0258 42.6015 26.398 42.6015 26.8572C42.6015 27.3165 42.2292 27.6887 41.77 27.6887Z" fill="#FE8F83"/>
<path d="M36.5366 9.117C36.0649 9.117 35.6825 9.49933 35.6825 9.97101C35.6825 9.49933 35.3001 9.117 34.8284 9.117C29.7382 9.117 25.6118 13.2434 25.6118 18.3336V20.484H30.9899C33.5815 20.484 35.6824 18.3831 35.6825 15.7916C35.6826 18.3831 37.7835 20.484 40.3751 20.484H45.7532V18.3336C45.7532 13.2434 41.6268 9.117 36.5366 9.117Z" fill="#5A5A5A"/>
<path d="M36.5368 9.117C36.2921 9.117 36.072 9.22042 35.9164 9.38527C39.9395 10.3751 42.9243 14.0049 42.9243 18.3335V20.4839H45.7534V18.3335C45.7534 13.2434 41.6269 9.117 36.5368 9.117Z" fill="#444444"/>
<path d="M36.0207 29.2923C37.3459 29.2923 38.4239 28.2142 38.4239 26.8891C38.4239 26.4845 38.096 26.1566 37.6915 26.1566C37.287 26.1566 36.9591 26.4845 36.9591 26.8891C36.9591 27.4065 36.5381 27.8274 36.0207 27.8274C35.5033 27.8274 35.0823 27.4064 35.0823 26.8891C35.0823 26.4845 34.7544 26.1566 34.3499 26.1566C33.9454 26.1566 33.6175 26.4845 33.6175 26.8891C33.6174 28.2142 34.6955 29.2923 36.0207 29.2923Z" fill="black"/>
<path d="M39.8608 25.1839C40.2653 25.1839 40.5932 24.856 40.5932 24.4514V23.6861C40.9548 23.6413 41.2348 23.333 41.2348 22.9593C41.2348 22.5547 40.9069 22.2268 40.5024 22.2268H39.8608C39.4563 22.2268 39.1284 22.5547 39.1284 22.9593V24.4514C39.1284 24.856 39.4563 25.1839 39.8608 25.1839Z" fill="black"/>
<path d="M31.448 23.6862V24.4516C31.448 24.8561 31.7759 25.184 32.1804 25.184C32.5849 25.184 32.9128 24.8561 32.9128 24.4516V22.9594C32.9128 22.5548 32.5849 22.2269 32.1804 22.2269H31.5388C31.1343 22.2269 30.8064 22.5548 30.8064 22.9594C30.8064 23.333 31.0864 23.6414 31.448 23.6862Z" fill="black"/>
<path d="M46.9673 24.5831C47.1752 24.1432 47.2921 23.6521 47.2921 23.1342C47.2921 22.2722 46.9693 21.4845 46.4392 20.8841C46.5233 20.7648 46.5731 20.6197 46.5731 20.4626C46.5731 18.2993 46.6812 17.0164 46.0304 15.1557C45.8968 14.7738 45.479 14.5722 45.0972 14.706C44.7153 14.8395 44.5141 15.2574 44.6476 15.6392C45.1795 17.1599 45.1082 18.2146 45.1082 19.7302C44.174 19.7302 41.6573 19.7302 40.5963 19.7302C38.4771 19.7302 36.753 18.0061 36.7529 15.887C36.7529 15.4824 36.425 15.1546 36.0205 15.1546C35.616 15.1546 35.2881 15.4824 35.2881 15.887C35.2881 18.0061 33.564 19.7302 31.4447 19.7302H28.2623H26.9328V18.3657C26.9328 13.814 30.6359 10.1108 35.1877 10.1108C35.2431 10.1108 35.2881 10.1558 35.2881 10.2112C35.2881 10.6157 35.616 10.9435 36.0205 10.9435C36.425 10.9435 36.7529 10.6157 36.7529 10.2112C36.7529 10.1558 36.7979 10.1108 36.8533 10.1108C39.2396 10.1109 41.5082 11.1433 43.0777 12.9433C43.3436 13.2483 43.8063 13.2798 44.1111 13.0142C44.416 12.7482 44.4477 12.2856 44.1818 11.9808C42.3341 9.86161 39.663 8.64618 36.8534 8.64608C36.5476 8.64608 36.2619 8.73427 36.0206 8.88651C35.7793 8.73427 35.4937 8.64608 35.1878 8.64608C29.8283 8.64608 25.4681 13.0063 25.4681 18.3658V20.4627C25.4681 20.6197 25.518 20.7649 25.6021 20.8842C25.3562 21.1626 25.1548 21.481 25.0099 21.8289C24.9219 20.7488 24.377 19.8003 23.5634 19.1798V16.3894C23.5634 10.8957 19.0939 6.42626 13.6002 6.42626C12.2361 6.42626 12.7827 6.40272 10.896 6.55018C8.29346 6.75331 5.96445 8.14599 4.55459 10.3126L2.34893 9.60761C1.89189 9.46112 1.41738 9.78866 1.39434 10.2703C1.38389 10.491 1.16289 15.3959 2.05723 18.8122C0.838769 19.4233 0 20.684 0 22.1376C0 24.0237 1.41172 25.5864 3.23408 25.8245C3.69277 27.7925 4.77637 29.5789 6.32646 30.9038C6.73291 31.2512 7.1666 31.5603 7.6207 31.832H6.07949C3.54717 31.832 1.48701 33.8923 1.48701 36.4245V42.8428C1.48701 43.2474 1.81494 43.5752 2.21943 43.5752H3.43613C3.84063 43.5752 4.16855 43.2474 4.16855 42.8428C4.16855 42.4382 3.84063 42.1103 3.43613 42.1103H2.95186V36.4245C2.95186 34.6999 4.35488 33.2969 6.07949 33.2969H8.21016C8.57412 35.4564 10.5272 37.0802 12.809 36.9329C14.8745 36.7998 16.511 35.2457 16.8398 33.2969H18.9708C20.6954 33.2969 22.0985 34.6999 22.0985 36.4245V42.1103H6.8542C6.44971 42.1103 6.12178 42.4382 6.12178 42.8428C6.12178 43.2474 6.44971 43.5752 6.8542 43.5752H22.8311C23.2355 43.5752 23.5635 43.2474 23.5635 42.8428V36.4245C23.5635 35.8146 23.443 35.2326 23.2262 34.6997H24.4029C25.1397 34.6997 25.8425 34.5525 26.4848 34.2875C26.0329 34.9862 25.7694 35.8177 25.7694 36.7099V42.8428C25.7694 43.2474 26.0974 43.5752 26.5019 43.5752H45.5888C45.9933 43.5752 46.3212 43.2474 46.3212 42.8428V36.7099C46.3212 35.8287 46.0642 35.0068 45.6226 34.3135C46.247 34.5617 46.9268 34.6997 47.6387 34.6997H49.2676C49.6721 34.6997 50 34.3719 50 33.9673V29.4815C50 27.395 48.7907 25.4979 46.9673 24.5831ZM31.4449 21.1951C33.3916 21.1951 35.0969 20.142 36.0207 18.5753C36.9446 20.142 38.6498 21.1951 40.5965 21.1951H43.8882C44.9574 21.1951 45.8272 22.0649 45.8272 23.1342C45.8272 23.657 45.6184 24.1312 45.2809 24.4803C44.8952 24.8787 44.3604 25.0934 43.8104 25.0711C43.44 25.054 43.1181 25.3174 43.0571 25.682C42.4999 29.0134 39.6181 31.6308 36.0207 31.6308C33.4791 31.6308 31.105 30.2872 29.8275 28.0526C29.8156 28.0225 29.802 27.9929 29.786 27.9643C29.4878 27.4294 29.2616 26.8642 29.1106 26.2779C29.1076 26.2662 29.1052 26.2543 29.1022 26.2426C29.0606 26.0773 29.0211 25.902 28.9843 25.6819C28.9234 25.3182 28.6001 25.0542 28.231 25.071C27.1349 25.1155 26.2142 24.2312 26.2142 23.134C26.2142 22.0647 27.0841 21.1949 28.1532 21.1949C28.1799 21.1949 28.2064 21.1961 28.2329 21.1971C28.2642 21.1983 28.2949 21.1975 28.3254 21.1949H31.4449V21.1951ZM36.0327 36.1767C34.6392 36.1767 33.5054 35.0429 33.5054 33.6492V32.9674V32.7212C34.3366 32.9763 35.2047 33.0959 36.0206 33.0959C36.8633 33.0959 37.7408 32.968 38.56 32.7139V33.6493C38.56 34.9994 37.4959 36.1057 36.1625 36.1734C36.1195 36.1756 36.0763 36.1767 36.0327 36.1767ZM30.2434 32.235C30.2432 32.235 30.2428 32.235 30.2425 32.235C29.7404 32.2351 29.258 32.3197 28.8071 32.473C29.2598 31.8611 29.5876 31.1519 29.754 30.3831C29.9688 30.6119 30.196 30.8306 30.4364 31.036C30.9314 31.4591 31.4702 31.821 32.0405 32.1186V32.235H30.2434ZM40.0249 32.1066C40.854 31.6706 41.6126 31.1017 42.2873 30.3832C42.4518 31.1429 42.7741 31.8441 43.2186 32.4511C42.3823 32.1809 41.946 32.235 40.025 32.235V32.1066H40.0249ZM2.83359 11.3003L4.66064 11.8842C4.99355 11.9903 5.35547 11.8469 5.52461 11.5408C6.64678 9.51073 8.69746 8.19091 11.0101 8.01054C12.8514 7.86679 12.2931 7.89101 13.6002 7.89101C18.2861 7.89101 22.0985 11.7033 22.0985 16.3893V18.5051C21.4585 18.3673 21.6609 18.4222 11.616 18.4222C10.8857 18.4222 10.1862 18.2599 9.55596 17.9668C8.16934 17.3221 7.11777 16.0444 6.80977 14.47C6.69209 13.8684 5.95166 13.6875 5.55615 14.1102C4.49961 15.2397 3.76094 16.5777 3.35986 17.9663C2.85625 15.6882 2.81553 12.781 2.83359 11.3003ZM4.56221 24.9996C4.50293 24.6454 4.19639 24.388 3.84014 24.388C3.83027 24.388 3.82031 24.3882 3.81035 24.3886C3.77979 24.3898 3.74922 24.391 3.71836 24.391C2.47578 24.391 1.46484 23.3802 1.46484 22.1376C1.46484 20.9159 2.43867 19.9284 3.63652 19.8861C3.63945 19.886 3.64248 19.886 3.64541 19.8859C3.6999 19.8843 3.75439 19.8843 3.80859 19.8865C3.80977 19.8865 3.81094 19.8865 3.81211 19.8866C3.81436 19.8867 3.8166 19.8864 3.81885 19.8865C4.18418 19.8978 4.50176 19.6368 4.56221 19.2756C4.72754 18.287 5.07471 17.3466 5.58389 16.494C5.65664 16.3723 5.73271 16.2522 5.81201 16.1342C6.82021 18.3733 9.07441 19.8871 11.616 19.8871H21.4104H21.4109C21.7665 19.9035 22.1368 20.0108 22.4561 20.201C22.4617 20.2044 22.4678 20.2066 22.4735 20.2099C23.1261 20.6045 23.5585 21.3193 23.5585 22.1375C23.5585 23.3801 22.5476 24.3909 21.305 24.3909C21.2741 24.3909 21.2435 24.3896 21.2129 24.3885C20.8444 24.3753 20.522 24.6355 20.461 24.9995C19.7973 28.9686 16.3818 31.7203 12.5116 31.7203C8.61162 31.7204 5.22129 28.9404 4.56221 24.9996ZM12.3782 35.4745C10.945 35.4028 9.77647 34.288 9.62979 32.8663C9.62871 32.8557 9.62813 32.8448 9.62715 32.8341C9.62422 32.8024 9.62178 32.7706 9.61992 32.7387C10.5845 33.0465 11.5902 33.1851 12.5118 33.1851C13.4508 33.1851 14.4646 33.0416 15.4315 32.7296C15.343 34.3247 13.9755 35.5543 12.3782 35.4745ZM18.9709 31.832H17.4028C17.8569 31.5603 18.2906 31.2512 18.6971 30.9038C20.2471 29.579 21.3308 27.7926 21.7894 25.8245C23.1508 25.6467 24.2828 24.7294 24.7684 23.4903C24.8088 23.8774 24.9144 24.2454 25.0739 24.5831C23.2505 25.4979 22.0412 27.3949 22.0412 29.4815V33.0127C21.2271 32.2793 20.1504 31.832 18.9709 31.832ZM23.5062 33.2349V29.4815C23.5062 27.8517 24.513 26.379 25.9986 25.7691C26.4852 26.1664 27.071 26.416 27.6567 26.502C27.8259 27.2086 28.0922 27.8987 28.4138 28.507V29.2236C28.4138 31.4353 26.6145 33.2348 24.4027 33.2348H23.5062V33.2349ZM44.8563 42.1103H27.2342V36.7099C27.2342 35.0501 28.5846 33.6998 30.2443 33.6998H32.0409C32.0679 35.8626 33.836 37.6415 36.0327 37.6415C38.2043 37.6415 39.9972 35.8899 40.0246 33.6998H41.8461C43.5059 33.6998 44.8562 35.0501 44.8562 36.7099V42.1103H44.8563ZM48.5352 33.2349H47.6385C45.4268 33.2349 43.6274 31.4354 43.6274 29.2237V28.5071C43.9538 27.8897 44.2175 27.1997 44.3845 26.5021C44.9348 26.4214 45.4897 26.1977 45.9723 25.8228C45.9956 25.8048 46.0197 25.788 46.0426 25.7693C47.5283 26.3791 48.5352 27.8517 48.5352 29.4815V33.2349Z" fill="black"/>
<path d="M12.5116 28.9469C13.9452 28.9469 15.1115 27.7805 15.1115 26.347C15.1115 25.9424 14.7836 25.6145 14.3791 25.6145C13.9746 25.6145 13.6467 25.9424 13.6467 26.347C13.6467 26.9728 13.1375 27.482 12.5116 27.482C11.8857 27.482 11.3765 26.9728 11.3765 26.347C11.3765 25.9424 11.0485 25.6145 10.644 25.6145C10.2396 25.6145 9.91162 25.9424 9.91162 26.347C9.91172 27.7805 11.078 28.9469 12.5116 28.9469Z" fill="black"/>
<path d="M8.21948 21.2465C7.81499 21.2465 7.48706 21.5743 7.48706 21.9789V23.5982C7.48706 24.0028 7.81499 24.3307 8.21948 24.3307C8.62397 24.3307 8.9519 24.0028 8.9519 23.5982V21.9789C8.9519 21.5744 8.62397 21.2465 8.21948 21.2465Z" fill="black"/>
<path d="M16.8039 24.3307C17.2084 24.3307 17.5363 24.0028 17.5363 23.5982V21.9789C17.5363 21.5743 17.2084 21.2465 16.8039 21.2465C16.3994 21.2465 16.0715 21.5743 16.0715 21.9789V23.5982C16.0715 24.0028 16.3994 24.3307 16.8039 24.3307Z" fill="black"/>
</g>
<defs>
<clipPath id="clip0">
<rect width="50" height="50" fill="white"/>
</clipPath>
</defs>
</svg>
