<svg width="60" height="60" viewBox="0 0 60 60" fill="none" xmlns="http://www.w3.org/2000/svg">
<g clip-path="url(#clip0)">
<path d="M50.2041 54.6775L44.5623 45.7088C44.2177 45.161 43.4941 44.9961 42.9465 45.3409C42.3987 45.6854 42.2339 46.4088 42.5784 46.9566L45.2809 51.2526L42.9099 52.8799C36.9524 45.2748 27.5032 33.2172 27.5032 33.2172C27.3093 32.9698 27.0238 32.8105 26.7113 32.7755C26.399 32.7403 26.0854 32.8326 25.8414 33.031L18.4684 39.0292C18.0813 39.3442 17.9361 39.8695 18.1066 40.3384L21.5895 49.9207L18.6082 51.2762L14.6649 43.4017C13.5572 41.1897 13.8812 38.5462 15.4903 36.6671L22.8095 28.1202L30.1985 26.7045C32.3443 27.6131 34.6377 29.8984 34.4224 33.5817C34.4082 33.8254 34.4704 34.0674 34.6004 34.274L36.9637 38.0309C37.3081 38.5786 38.0317 38.7436 38.5795 38.3989C39.1273 38.0544 39.2921 37.3309 38.9476 36.7831L36.7774 33.3335C36.8666 29.1198 34.3242 26.0835 31.4928 24.7205L31.545 20.0637C32.2057 19.532 32.6915 18.7986 32.9142 17.9713C33.1396 17.1337 33.0832 16.244 32.7685 15.4449C33.2371 15.5916 33.7352 15.6708 34.2516 15.6708C36.9936 15.6708 39.2244 13.44 39.2244 10.698C39.2244 9.33173 38.6704 8.09257 37.7754 7.19287H46.2221C48.2052 7.19287 49.8185 5.57945 49.8185 3.59644C49.8185 1.61343 48.205 0 46.2219 0H36.2243C32.8308 0 29.5367 1.40415 27.1868 3.85236L21.5347 9.74068C20.8083 10.2443 20.2008 10.9257 19.7774 11.7468C19.4215 12.4367 19.2192 13.195 19.1762 13.9667L14.0158 12.3194C12.1308 11.7178 10.1393 12.6806 9.48212 14.5114C9.1491 15.4398 9.20582 16.4373 9.64184 17.3202C10.0732 18.1938 10.8183 18.8405 11.7424 19.1442C11.7424 19.1442 17.6646 21.369 17.6833 21.3751C18.4573 21.6221 19.2684 21.8228 20.0948 21.9769L20.8001 26.864L13.7103 35.1431C11.4863 37.7403 11.0384 41.3939 12.5695 44.4514L19.3537 57.9991C19.9867 59.2633 21.2427 60.0001 22.5706 60.0001C23.0213 60.0001 23.4802 59.9152 23.9256 59.7373C25.75 59.0088 26.6533 56.992 25.9822 55.146L20.5939 40.3214L26.3947 35.6024C29.3708 39.4003 40.5413 53.6548 44.4494 58.6466C45.5972 60.1127 47.6945 60.4205 49.224 59.3477L49.2699 59.3156C50.7684 58.2642 51.1787 56.227 50.2041 54.6775ZM21.5118 14.5094C21.4854 13.9555 21.606 13.314 21.8603 12.821C22.4057 11.7631 23.482 11.1075 24.6715 11.1075H24.6853L29.2984 11.127C29.3555 11.7912 29.5435 12.4182 29.8367 12.9825C28.9343 12.7972 27.9648 12.9184 27.0952 13.3923C26.6141 13.6546 26.1038 13.8778 25.5787 14.0558C24.2553 14.5047 22.8734 14.6556 21.5118 14.5094ZM34.2515 13.3274C32.8017 13.3274 31.6223 12.1479 31.6223 10.6981C31.6223 9.24842 32.8017 8.0689 34.2515 8.0689C35.7012 8.0689 36.8808 9.24842 36.8808 10.6981C36.8808 12.1479 35.7012 13.3274 34.2515 13.3274ZM28.8775 5.47528C30.7878 3.485 33.4656 2.34357 36.2243 2.34357H46.2219C46.9128 2.34357 47.4747 2.90555 47.4747 3.59644C47.4747 4.28732 46.9126 4.84931 46.2219 4.84931H35.4572C34.1016 4.84931 32.7965 5.3943 31.842 6.34989C30.8687 6.89149 30.095 7.74971 29.6619 8.78498L25.7166 8.76822L28.8775 5.47528ZM12.5415 16.9411C12.5231 16.9341 12.5045 16.9276 12.4856 16.9216C12.1587 16.8172 11.8951 16.5903 11.7431 16.2825C11.5912 15.9749 11.5716 15.627 11.6879 15.3028C11.9128 14.6764 12.637 14.3398 13.303 14.552L18.9095 16.3417C21.3442 17.1188 23.9105 17.0961 26.3311 16.2754C26.9832 16.0543 27.6176 15.7767 28.2166 15.4502C29.0057 15.0198 29.991 15.2811 30.4597 16.0442V16.0443C30.7045 16.4427 30.7724 16.9108 30.651 17.3624C30.5295 17.814 30.2358 18.1849 29.8242 18.4067C27.7138 19.5441 25.36 20.0838 23.0175 19.9686C21.4538 19.8914 19.8661 19.6089 18.4237 19.1512L12.5415 16.9411ZM22.902 22.3093C23.148 22.3215 23.3938 22.3275 23.6396 22.3275C25.5292 22.3275 27.4104 21.9702 29.1877 21.2779L29.1513 24.5192L22.9997 25.6978L22.507 22.2833C22.6387 22.2925 22.7705 22.3029 22.902 22.3093ZM23.0566 57.5607C22.4381 57.8077 21.7472 57.5449 21.4491 56.9496L19.6582 53.3734L22.3925 52.1303L23.7796 55.9466C24.0156 56.5955 23.6981 57.3045 23.0566 57.5607ZM47.9242 57.3966L47.8783 57.4287C47.3695 57.7859 46.6737 57.6861 46.2946 57.2018C45.7683 56.5294 45.11 55.6889 44.3579 54.7287L46.5298 53.2381L48.2202 55.9254C48.5296 56.417 48.3994 57.0634 47.9242 57.3966Z" fill="white"/>
<path d="M40.7621 43.0423C41.4092 43.0423 41.9338 42.5177 41.9338 41.8705C41.9338 41.2234 41.4092 40.6987 40.7621 40.6987C40.1149 40.6987 39.5903 41.2234 39.5903 41.8705C39.5903 42.5177 40.1149 43.0423 40.7621 43.0423Z" fill="white"/>
</g>
<defs>
<clipPath id="clip0">
<rect width="60" height="60" fill="white"/>
</clipPath>
</defs>
</svg>
