<svg width="50" height="50" viewBox="0 0 50 50" fill="none" xmlns="http://www.w3.org/2000/svg">
<g clip-path="url(#clip0)">
<path d="M50 8.3333C50 3.73838 46.2616 0 41.6667 0C37.0717 0 33.3334 3.73838 33.3334 8.3333C33.3334 12.319 39.2385 20.3859 40.6221 22.222C40.6217 22.815 40.6221 23.3974 40.6078 23.9318C40.5925 24.5065 41.0463 24.9857 41.6219 25.001C41.6311 25.001 41.6403 25.001 41.6505 25.001C42.212 25.001 42.6758 24.5523 42.6911 23.9868C42.7054 23.4384 42.705 22.8397 42.7054 22.2298C44.0799 20.4063 50 12.3237 50 8.3333Z" fill="#303C42"/>
<path d="M41.6667 2.08328C45.1132 2.08328 47.9167 4.8868 47.9167 8.33328C47.9167 10.9852 43.9566 16.9809 41.6667 20.1314C39.3769 16.981 35.4167 10.9853 35.4167 8.33328C35.4167 4.8869 38.2203 2.08328 41.6667 2.08328Z" fill="#FEB335"/>
<path d="M43.75 8.3333C43.75 7.18486 42.8151 6.25 41.6667 6.25C40.5182 6.25 39.5834 7.18486 39.5834 8.3333C39.5834 9.48174 40.5182 10.4166 41.6667 10.4166C42.8151 10.4167 43.75 9.48184 43.75 8.3333Z" fill="#303C42"/>
<path d="M28.2787 37.5428C27.7395 37.3332 27.1393 37.6008 26.9308 38.1379C26.4639 39.3443 25.8801 40.7512 25.0927 42.04C24.7926 42.5314 24.9482 43.1723 25.4385 43.4724C25.6085 43.5762 25.7956 43.625 25.9807 43.625C26.3317 43.625 26.6745 43.448 26.8709 43.1266C27.7437 41.6963 28.3733 40.1826 28.8738 38.8907C29.0813 38.3545 28.8148 37.7513 28.2787 37.5428Z" fill="#303C42"/>
<path d="M22.4049 45.1446C21.3612 45.9717 20.1751 46.5942 18.7774 47.0489C18.2301 47.2269 17.931 47.8149 18.109 48.3622C18.2525 48.8017 18.6604 49.0814 19.0999 49.0814C19.2067 49.0814 19.3155 49.0651 19.4223 49.0306C21.0367 48.5057 22.475 47.7478 23.6989 46.7783C24.1496 46.4202 24.2258 45.7651 23.8688 45.3144C23.5086 44.8649 22.8545 44.7846 22.4049 45.1446Z" fill="#303C42"/>
<path d="M31.8847 30.0221C30.1656 30.9977 29.2104 32.6914 28.6407 33.8796C28.3915 34.3984 28.6101 35.021 29.129 35.2691C29.2745 35.3393 29.4281 35.3718 29.5786 35.3718C29.9672 35.3718 30.3395 35.1542 30.5185 34.7808C31.2418 33.2722 31.9803 32.3638 32.9141 31.8328C33.4136 31.549 33.5896 30.9132 33.3048 30.4127C33.022 29.9123 32.3883 29.7363 31.8847 30.0221Z" fill="#303C42"/>
<path d="M39.8335 27.7222C39.4907 28.2288 38.7888 28.9256 36.6658 29.1158C36.093 29.1677 35.6699 29.6732 35.7217 30.247C35.7705 30.7882 36.2252 31.195 36.7583 31.195C36.7899 31.195 36.8214 31.194 36.853 31.1909C39.1082 30.9885 40.6473 30.2357 41.5588 28.8898C41.8813 28.4138 41.7562 27.7658 41.2801 27.4433C40.8071 27.123 40.157 27.2461 39.8335 27.7222Z" fill="#303C42"/>
<path d="M14.9683 47.9302C18.2551 44.4251 25 36.3614 25 29.1667C25 22.1578 19.5089 16.6667 12.5 16.6667C5.49111 16.6667 0 22.1578 0 29.1667C0 38.4694 11.3037 49.2605 11.7849 49.7153C11.9853 49.9055 12.2427 50.0001 12.5 50.0001C13.2589 50.0001 13.9801 49.9736 14.6637 49.9218C15.2374 49.878 15.6677 49.3785 15.6239 48.8048C15.5927 48.3942 15.327 48.0739 14.9683 47.9302Z" fill="#303C42"/>
<path d="M12.4999 47.4895C10.0391 44.9789 2.08319 36.3078 2.08319 29.1667C2.08319 23.3256 6.65887 18.75 12.4999 18.75C18.3409 18.75 22.9166 23.3256 22.9166 29.1667C22.9166 36.3078 14.9606 44.9788 12.4999 47.4895Z" fill="#FEB335"/>
<path d="M12.5 35.4167C15.9518 35.4167 18.75 32.6185 18.75 29.1667C18.75 25.7149 15.9518 22.9167 12.5 22.9167C9.04822 22.9167 6.25 25.7149 6.25 29.1667C6.25 32.6185 9.04822 35.4167 12.5 35.4167Z" fill="#303C42"/>
<path d="M12.4999 33.3334C14.8011 33.3334 16.6666 31.4679 16.6666 29.1667C16.6666 26.8655 14.8011 25 12.4999 25C10.1987 25 8.33319 26.8655 8.33319 29.1667C8.33319 31.4679 10.1987 33.3334 12.4999 33.3334Z" fill="white"/>
<path opacity="0.1" d="M10.4166 31.25C10.4166 28.9521 12.2852 27.0833 14.5833 27.0833C15.1932 27.0833 15.7685 27.2224 16.2911 27.4588C15.6367 26.0128 14.1879 25 12.4999 25C10.2019 25 8.33319 26.8687 8.33319 29.1667C8.33319 30.8547 9.34598 32.3035 10.792 32.9579C10.5557 32.4353 10.4166 31.86 10.4166 31.25Z" fill="black"/>
<path d="M41.6667 0C37.0718 0 33.3334 3.73838 33.3334 8.3333C33.3334 12.319 39.2386 20.3859 40.6222 22.222C40.6218 22.815 40.6222 23.3974 40.6078 23.9318C40.5926 24.5065 41.0463 24.9857 41.622 25.001H41.6505C42.212 25.001 42.6759 24.5523 42.6911 23.9868C42.7055 23.4384 42.7051 22.8397 42.7055 22.2298C44.0799 20.4063 50 12.3237 50 8.3333C50 3.73838 46.2616 0 41.6667 0ZM28.2786 37.5428C27.7395 37.3332 27.1393 37.6008 26.9308 38.1379C26.4639 39.3443 25.88 40.7512 25.0926 42.04C24.7925 42.5313 24.9481 43.1723 25.4385 43.4724C25.6084 43.5762 25.7955 43.625 25.9807 43.625C26.3316 43.625 26.6744 43.4479 26.8708 43.1266C27.7437 41.6963 28.3732 40.1826 28.8737 38.8907C29.0812 38.3545 28.8147 37.7513 28.2786 37.5428ZM22.405 45.1446C21.3612 45.9717 20.1752 46.5942 18.7774 47.0489C18.2302 47.227 17.9311 47.8149 18.1091 48.3622C18.2525 48.8017 18.6604 49.0814 19.0999 49.0814C19.2067 49.0814 19.3155 49.0651 19.4224 49.0306C21.0367 48.5057 22.4751 47.7479 23.6989 46.7783C24.1496 46.4202 24.2259 45.7651 23.8688 45.3145C23.5087 44.8649 22.8546 44.7846 22.405 45.1446ZM31.8848 30.0222C30.1656 30.9978 29.2104 32.6914 28.6407 33.8796C28.3915 34.3984 28.6102 35.021 29.129 35.2691C29.2745 35.3394 29.4281 35.3719 29.5786 35.3719C29.9672 35.3719 30.3396 35.1542 30.5186 34.7809C31.2418 33.2723 31.9804 32.3639 32.9142 31.8328C33.4137 31.549 33.5896 30.9132 33.3048 30.4127C33.0221 29.9123 32.3883 29.7363 31.8848 30.0222ZM39.8336 27.7222C39.4908 28.2288 38.7889 28.9256 36.6658 29.1158C36.0931 29.1677 35.6699 29.6732 35.7218 30.247C35.7706 30.7882 36.2253 31.195 36.7584 31.195C36.7899 31.195 36.8215 31.194 36.853 31.1909C39.1083 30.9885 40.6474 30.2357 41.5589 28.8898C41.8813 28.4138 41.7563 27.7658 41.2802 27.4433C40.8071 27.123 40.157 27.2461 39.8336 27.7222ZM14.9683 47.9302C18.2551 44.4251 25 36.3614 25 29.1667C25 22.1578 19.5089 16.6667 12.5 16.6667C5.49111 16.6667 0 22.1578 0 29.1667C0 38.4694 11.3037 49.2605 11.7849 49.7152C11.9853 49.9055 12.2427 50.0001 12.5 50.0001C13.2589 50.0001 13.9801 49.9736 14.6637 49.9218C15.2374 49.878 15.6677 49.3785 15.6239 48.8048C15.5927 48.3941 15.327 48.0739 14.9683 47.9302Z" fill="url(#paint0_linear)"/>
</g>
<defs>
<linearGradient id="paint0_linear" x1="5.48187" y1="14.5523" x2="40.6195" y2="30.9377" gradientUnits="userSpaceOnUse">
<stop stop-color="white" stop-opacity="0.2"/>
<stop offset="1" stop-color="white" stop-opacity="0"/>
</linearGradient>
<clipPath id="clip0">
<rect width="50" height="50" fill="white"/>
</clipPath>
</defs>
</svg>
