<svg width="88" height="154" viewBox="0 0 88 154" fill="none" xmlns="http://www.w3.org/2000/svg">
<path d="M9.8 5.39999C9.8 7.79999 7.79999 9.80002 5.39999 9.80002C2.99999 9.80002 1 7.79999 1 5.39999C1 2.99999 2.99999 1 5.39999 1C7.79999 1 9.8 2.99999 9.8 5.39999Z" stroke="#FEB335" stroke-width="0.7087" stroke-miterlimit="10"/>
<path d="M29.2 5.39999C29.2 7.79999 27.2 9.80002 24.8 9.80002C22.4 9.80002 20.4 7.79999 20.4 5.39999C20.4 2.99999 22.4 1 24.8 1C27.3 1 29.2 2.99999 29.2 5.39999Z" stroke="#FEB335" stroke-width="0.7087" stroke-miterlimit="10"/>
<path d="M48.7 5.39999C48.7 7.79999 46.7 9.80002 44.3 9.80002C41.9 9.80002 39.9 7.79999 39.9 5.39999C39.9 2.99999 41.9 1 44.3 1C46.7 1 48.7 2.99999 48.7 5.39999Z" stroke="#FEB335" stroke-width="0.7087" stroke-miterlimit="10"/>
<path d="M68.2 5.39999C68.2 7.79999 66.2 9.80002 63.8 9.80002C61.4 9.80002 59.4 7.79999 59.4 5.39999C59.4 2.99999 61.4 1 63.8 1C66.2 1 68.2 2.99999 68.2 5.39999Z" stroke="#FEB335" stroke-width="0.7087" stroke-miterlimit="10"/>
<path d="M87.6 5.39999C87.6 7.79999 85.6 9.80002 83.2 9.80002C80.8 9.80002 78.8 7.79999 78.8 5.39999C78.8 2.99999 80.8 1 83.2 1C85.6 1 87.6 2.99999 87.6 5.39999Z" stroke="#FEB335" stroke-width="0.7087" stroke-miterlimit="10"/>
<path d="M9.8 23.2999C9.8 25.6999 7.79999 27.6999 5.39999 27.6999C2.99999 27.6999 1 25.6999 1 23.2999C1 20.8999 2.99999 18.8999 5.39999 18.8999C7.79999 18.8999 9.8 20.7999 9.8 23.2999Z" stroke="#FEB335" stroke-width="0.7087" stroke-miterlimit="10"/>
<path d="M29.2 23.3001C29.2 25.7001 27.2 27.7001 24.8 27.7001C22.4 27.7001 20.4 25.7001 20.4 23.3001C20.4 20.9001 22.4 18.9001 24.8 18.9001C27.3 18.8001 29.2 20.8001 29.2 23.3001Z" stroke="#FEB335" stroke-width="0.7087" stroke-miterlimit="10"/>
<path d="M48.7 23.3001C48.7 25.7001 46.7 27.7001 44.3 27.7001C41.9 27.7001 39.9 25.7001 39.9 23.3001C39.9 20.9001 41.9 18.9001 44.3 18.9001C46.7 18.8001 48.7 20.8001 48.7 23.3001Z" stroke="#FEB335" stroke-width="0.7087" stroke-miterlimit="10"/>
<path d="M68.2 23.3001C68.2 25.7001 66.2 27.7001 63.8 27.7001C61.4 27.7001 59.4 25.7001 59.4 23.3001C59.4 20.9001 61.4 18.9001 63.8 18.9001C66.2 18.8001 68.2 20.8001 68.2 23.3001Z" stroke="#FEB335" stroke-width="0.7087" stroke-miterlimit="10"/>
<path d="M87.6 23.3001C87.6 25.7001 85.6 27.7001 83.2 27.7001C80.8 27.7001 78.8 25.7001 78.8 23.3001C78.8 20.9001 80.8 18.9001 83.2 18.9001C85.6 18.8001 87.6 20.8001 87.6 23.3001Z" stroke="#FEB335" stroke-width="0.7087" stroke-miterlimit="10"/>
<path d="M5.39999 45.5C7.83005 45.5 9.8 43.53 9.8 41.1C9.8 38.6699 7.83005 36.7 5.39999 36.7C2.96994 36.7 1 38.6699 1 41.1C1 43.53 2.96994 45.5 5.39999 45.5Z" stroke="#FEB335" stroke-width="0.7087" stroke-miterlimit="10"/>
<path d="M29.2 41.1C29.2 43.5 27.2 45.5 24.8 45.5C22.4 45.5 20.4 43.5 20.4 41.1C20.4 38.7 22.4 36.7 24.8 36.7C27.3 36.7 29.2 38.7 29.2 41.1Z" stroke="#FEB335" stroke-width="0.7087" stroke-miterlimit="10"/>
<path d="M48.7 41.1C48.7 43.5 46.7 45.5 44.3 45.5C41.9 45.5 39.9 43.5 39.9 41.1C39.9 38.7 41.9 36.7 44.3 36.7C46.7 36.7 48.7 38.7 48.7 41.1Z" stroke="#FEB335" stroke-width="0.7087" stroke-miterlimit="10"/>
<path d="M68.2 41.1C68.2 43.5 66.2 45.5 63.8 45.5C61.4 45.5 59.4 43.5 59.4 41.1C59.4 38.7 61.4 36.7 63.8 36.7C66.2 36.7 68.2 38.7 68.2 41.1Z" stroke="#FEB335" stroke-width="0.7087" stroke-miterlimit="10"/>
<path d="M87.6 41.1C87.6 43.5 85.6 45.5 83.2 45.5C80.8 45.5 78.8 43.5 78.8 41.1C78.8 38.7 80.8 36.7 83.2 36.7C85.6 36.7 87.6 38.7 87.6 41.1Z" stroke="#FEB335" stroke-width="0.7087" stroke-miterlimit="10"/>
<path d="M9.8 59.0001C9.8 61.4001 7.79999 63.4001 5.39999 63.4001C2.99999 63.4001 1 61.4001 1 59.0001C1 56.6001 2.99999 54.6001 5.39999 54.6001C7.79999 54.6001 9.8 56.6001 9.8 59.0001Z" stroke="#FEB335" stroke-width="0.7087" stroke-miterlimit="10"/>
<path d="M29.2 59.0001C29.2 61.4001 27.2 63.4001 24.8 63.4001C22.4 63.4001 20.4 61.4001 20.4 59.0001C20.4 56.6001 22.4 54.6001 24.8 54.6001C27.3 54.6001 29.2 56.6001 29.2 59.0001Z" stroke="#FEB335" stroke-width="0.7087" stroke-miterlimit="10"/>
<path d="M48.7 59.0001C48.7 61.4001 46.7 63.4001 44.3 63.4001C41.9 63.4001 39.9 61.4001 39.9 59.0001C39.9 56.6001 41.9 54.6001 44.3 54.6001C46.7 54.6001 48.7 56.6001 48.7 59.0001Z" stroke="#FEB335" stroke-width="0.7087" stroke-miterlimit="10"/>
<path d="M68.2 59.0001C68.2 61.4001 66.2 63.4001 63.8 63.4001C61.4 63.4001 59.4 61.4001 59.4 59.0001C59.4 56.6001 61.4 54.6001 63.8 54.6001C66.2 54.6001 68.2 56.6001 68.2 59.0001Z" stroke="#FEB335" stroke-width="0.7087" stroke-miterlimit="10"/>
<path d="M87.6 59.0001C87.6 61.4001 85.6 63.4001 83.2 63.4001C80.8 63.4001 78.8 61.4001 78.8 59.0001C78.8 56.6001 80.8 54.6001 83.2 54.6001C85.6 54.6001 87.6 56.6001 87.6 59.0001Z" stroke="#FEB335" stroke-width="0.7087" stroke-miterlimit="10"/>
<path d="M9.8 76.9C9.8 79.3 7.79999 81.3 5.39999 81.3C2.99999 81.3 1 79.3 1 76.9C1 74.5 2.99999 72.5 5.39999 72.5C7.79999 72.5 9.8 74.4 9.8 76.9Z" stroke="#FEB335" stroke-width="0.7087" stroke-miterlimit="10"/>
<path d="M29.2 76.9001C29.2 79.3001 27.2 81.3002 24.8 81.3002C22.4 81.3002 20.4 79.3001 20.4 76.9001C20.4 74.5001 22.4 72.5002 24.8 72.5002C27.3 72.4002 29.2 74.4001 29.2 76.9001Z" stroke="#FEB335" stroke-width="0.7087" stroke-miterlimit="10"/>
<path d="M48.7 76.9001C48.7 79.3001 46.7 81.3002 44.3 81.3002C41.9 81.3002 39.9 79.3001 39.9 76.9001C39.9 74.5001 41.9 72.5002 44.3 72.5002C46.7 72.4002 48.7 74.4001 48.7 76.9001Z" stroke="#FEB335" stroke-width="0.7087" stroke-miterlimit="10"/>
<path d="M68.2 76.9001C68.2 79.3001 66.2 81.3002 63.8 81.3002C61.4 81.3002 59.4 79.3001 59.4 76.9001C59.4 74.5001 61.4 72.5002 63.8 72.5002C66.2 72.4002 68.2 74.4001 68.2 76.9001Z" stroke="#FEB335" stroke-width="0.7087" stroke-miterlimit="10"/>
<path d="M87.6 76.9001C87.6 79.3001 85.6 81.3002 83.2 81.3002C80.8 81.3002 78.8 79.3001 78.8 76.9001C78.8 74.5001 80.8 72.5002 83.2 72.5002C85.6 72.4002 87.6 74.4001 87.6 76.9001Z" stroke="#FEB335" stroke-width="0.7087" stroke-miterlimit="10"/>
<path d="M9.8 94.7C9.8 97.1 7.79999 99.1 5.39999 99.1C2.99999 99.1 1 97.1 1 94.7C1 92.3 2.99999 90.3 5.39999 90.3C7.79999 90.3 9.8 92.3 9.8 94.7Z" stroke="#FEB335" stroke-width="0.7087" stroke-miterlimit="10"/>
<path d="M29.2 94.7C29.2 97.1 27.2 99.1 24.8 99.1C22.4 99.1 20.4 97.1 20.4 94.7C20.4 92.3 22.4 90.3 24.8 90.3C27.3 90.3 29.2 92.3 29.2 94.7Z" stroke="#FEB335" stroke-width="0.7087" stroke-miterlimit="10"/>
<path d="M48.7 94.7C48.7 97.1 46.7 99.1 44.3 99.1C41.9 99.1 39.9 97.1 39.9 94.7C39.9 92.3 41.9 90.3 44.3 90.3C46.7 90.3 48.7 92.3 48.7 94.7Z" stroke="#FEB335" stroke-width="0.7087" stroke-miterlimit="10"/>
<path d="M68.2 94.7C68.2 97.1 66.2 99.1 63.8 99.1C61.4 99.1 59.4 97.1 59.4 94.7C59.4 92.3 61.4 90.3 63.8 90.3C66.2 90.3 68.2 92.3 68.2 94.7Z" stroke="#FEB335" stroke-width="0.7087" stroke-miterlimit="10"/>
<path d="M87.6 94.7C87.6 97.1 85.6 99.1 83.2 99.1C80.8 99.1 78.8 97.1 78.8 94.7C78.8 92.3 80.8 90.3 83.2 90.3C85.6 90.3 87.6 92.3 87.6 94.7Z" stroke="#FEB335" stroke-width="0.7087" stroke-miterlimit="10"/>
<path d="M5.39999 117C7.83005 117 9.8 115.03 9.8 112.6C9.8 110.17 7.83005 108.2 5.39999 108.2C2.96994 108.2 1 110.17 1 112.6C1 115.03 2.96994 117 5.39999 117Z" stroke="#FEB335" stroke-width="0.7087" stroke-miterlimit="10"/>
<path d="M29.2 112.6C29.2 115 27.2 117 24.8 117C22.4 117 20.4 115 20.4 112.6C20.4 110.2 22.4 108.2 24.8 108.2C27.3 108.2 29.2 110.2 29.2 112.6Z" stroke="#FEB335" stroke-width="0.7087" stroke-miterlimit="10"/>
<path d="M48.7 112.6C48.7 115 46.7 117 44.3 117C41.9 117 39.9 115 39.9 112.6C39.9 110.2 41.9 108.2 44.3 108.2C46.7 108.2 48.7 110.2 48.7 112.6Z" stroke="#FEB335" stroke-width="0.7087" stroke-miterlimit="10"/>
<path d="M68.2 112.6C68.2 115 66.2 117 63.8 117C61.4 117 59.4 115 59.4 112.6C59.4 110.2 61.4 108.2 63.8 108.2C66.2 108.2 68.2 110.2 68.2 112.6Z" stroke="#FEB335" stroke-width="0.7087" stroke-miterlimit="10"/>
<path d="M87.6 112.6C87.6 115 85.6 117 83.2 117C80.8 117 78.8 115 78.8 112.6C78.8 110.2 80.8 108.2 83.2 108.2C85.6 108.2 87.6 110.2 87.6 112.6Z" stroke="#FEB335" stroke-width="0.7087" stroke-miterlimit="10"/>
<path d="M5.39999 134.9C7.83005 134.9 9.8 132.93 9.8 130.5C9.8 128.07 7.83005 126.1 5.39999 126.1C2.96994 126.1 1 128.07 1 130.5C1 132.93 2.96994 134.9 5.39999 134.9Z" stroke="#FEB335" stroke-width="0.7087" stroke-miterlimit="10"/>
<path d="M29.2 130.5C29.2 132.9 27.2 134.9 24.8 134.9C22.4 134.9 20.4 132.9 20.4 130.5C20.4 128.1 22.4 126.1 24.8 126.1C27.3 126 29.2 128 29.2 130.5Z" stroke="#FEB335" stroke-width="0.7087" stroke-miterlimit="10"/>
<path d="M48.7 130.5C48.7 132.9 46.7 134.9 44.3 134.9C41.9 134.9 39.9 132.9 39.9 130.5C39.9 128.1 41.9 126.1 44.3 126.1C46.7 126 48.7 128 48.7 130.5Z" stroke="#FEB335" stroke-width="0.7087" stroke-miterlimit="10"/>
<path d="M68.2 130.5C68.2 132.9 66.2 134.9 63.8 134.9C61.4 134.9 59.4 132.9 59.4 130.5C59.4 128.1 61.4 126.1 63.8 126.1C66.2 126 68.2 128 68.2 130.5Z" stroke="#FEB335" stroke-width="0.7087" stroke-miterlimit="10"/>
<path d="M87.6 130.5C87.6 132.9 85.6 134.9 83.2 134.9C80.8 134.9 78.8 132.9 78.8 130.5C78.8 128.1 80.8 126.1 83.2 126.1C85.6 126 87.6 128 87.6 130.5Z" stroke="#FEB335" stroke-width="0.7087" stroke-miterlimit="10"/>
<path d="M9.8 148.3C9.8 150.7 7.79999 152.7 5.39999 152.7C2.99999 152.7 1 150.7 1 148.3C1 145.9 2.99999 143.9 5.39999 143.9C7.79999 143.9 9.8 145.9 9.8 148.3Z" stroke="#FEB335" stroke-width="0.7087" stroke-miterlimit="10"/>
<path d="M29.2 148.3C29.2 150.7 27.2 152.7 24.8 152.7C22.4 152.7 20.4 150.7 20.4 148.3C20.4 145.9 22.4 143.9 24.8 143.9C27.3 143.9 29.2 145.9 29.2 148.3Z" stroke="#FEB335" stroke-width="0.7087" stroke-miterlimit="10"/>
<path d="M48.7 148.3C48.7 150.7 46.7 152.7 44.3 152.7C41.9 152.7 39.9 150.7 39.9 148.3C39.9 145.9 41.9 143.9 44.3 143.9C46.7 143.9 48.7 145.9 48.7 148.3Z" stroke="#FEB335" stroke-width="0.7087" stroke-miterlimit="10"/>
<path d="M68.2 148.3C68.2 150.7 66.2 152.7 63.8 152.7C61.4 152.7 59.4 150.7 59.4 148.3C59.4 145.9 61.4 143.9 63.8 143.9C66.2 143.9 68.2 145.9 68.2 148.3Z" stroke="#FEB335" stroke-width="0.7087" stroke-miterlimit="10"/>
<path d="M87.6 148.3C87.6 150.7 85.6 152.7 83.2 152.7C80.8 152.7 78.8 150.7 78.8 148.3C78.8 145.9 80.8 143.9 83.2 143.9C85.6 143.9 87.6 145.9 87.6 148.3Z" stroke="#FEB335" stroke-width="0.7087" stroke-miterlimit="10"/>
</svg>
