<svg width="23" height="283" viewBox="0 0 23 283" fill="none" xmlns="http://www.w3.org/2000/svg">
<path d="M1.9 48.3C2.94934 48.3 3.8 47.4493 3.8 46.4C3.8 45.3507 2.94934 44.5 1.9 44.5C0.85066 44.5 0 45.3507 0 46.4C0 47.4493 0.85066 48.3 1.9 48.3Z" fill="white"/>
<path d="M1.9 56.4001C2.94934 56.4001 3.8 55.5494 3.8 54.5001C3.8 53.4508 2.94934 52.6001 1.9 52.6001C0.85066 52.6001 0 53.4508 0 54.5001C0 55.5494 0.85066 56.4001 1.9 56.4001Z" fill="white"/>
<path d="M1.9 64.5C2.94934 64.5 3.8 63.6493 3.8 62.6C3.8 61.5506 2.94934 60.7 1.9 60.7C0.85066 60.7 0 61.5506 0 62.6C0 63.6493 0.85066 64.5 1.9 64.5Z" fill="white"/>
<path d="M1.9 72.6001C2.94934 72.6001 3.8 71.7494 3.8 70.7001C3.8 69.6507 2.94934 68.8 1.9 68.8C0.85066 68.8 0 69.6507 0 70.7001C0 71.7494 0.85066 72.6001 1.9 72.6001Z" fill="white"/>
<path d="M1.9 80.6999C2.94934 80.6999 3.8 79.8492 3.8 78.7999C3.8 77.7506 2.94934 76.8999 1.9 76.8999C0.85066 76.8999 0 77.7506 0 78.7999C0 79.8492 0.85066 80.6999 1.9 80.6999Z" fill="white"/>
<path d="M1.9 88.6999C0.900002 88.6999 0 87.8999 0 86.7999C0 85.7999 0.800002 84.8999 1.9 84.8999C3 84.8999 3.8 85.6999 3.8 86.7999C3.8 87.8999 3 88.6999 1.9 88.6999Z" fill="white"/>
<path d="M1.9 96.8C0.900002 96.8 0 96 0 94.9C0 93.9 0.800002 93 1.9 93C3 93 3.8 93.8 3.8 94.9C3.8 96 3 96.8 1.9 96.8Z" fill="white"/>
<path d="M1.9 104.9C0.900002 104.9 0 104.1 0 103C0 102 0.800002 101.1 1.9 101.1C3 101.1 3.8 101.9 3.8 103C3.8 104.1 3 104.9 1.9 104.9Z" fill="white"/>
<path d="M1.9 113C0.900002 113 0 112.2 0 111.1C0 110.1 0.800002 109.2 1.9 109.2C3 109.2 3.8 110 3.8 111.1C3.8 112.2 3 113 1.9 113Z" fill="white"/>
<path d="M1.9 121.1C0.900002 121.1 0 120.3 0 119.2C0 118.2 0.800002 117.3 1.9 117.3C3 117.3 3.8 118.2 3.8 119.2C3.8 120.3 3 121.1 1.9 121.1Z" fill="white"/>
<path d="M1.9 129.2C0.900002 129.2 0 128.4 0 127.3C0 126.2 0.800002 125.4 1.9 125.4C3 125.4 3.8 126.2 3.8 127.3C3.8 128.4 3 129.2 1.9 129.2Z" fill="white"/>
<path d="M1.9 137.3C0.900002 137.3 0 136.5 0 135.4C0 134.4 0.800002 133.5 1.9 133.5C3 133.5 3.8 134.3 3.8 135.4C3.8 136.4 3 137.3 1.9 137.3Z" fill="white"/>
<path d="M1.9 145.4C0.900002 145.4 0 144.6 0 143.5C0 142.5 0.800002 141.6 1.9 141.6C3 141.6 3.8 142.4 3.8 143.5C3.8 144.5 3 145.4 1.9 145.4Z" fill="white"/>
<path d="M1.9 153.5C2.94934 153.5 3.8 152.649 3.8 151.6C3.8 150.551 2.94934 149.7 1.9 149.7C0.85066 149.7 0 150.551 0 151.6C0 152.649 0.85066 153.5 1.9 153.5Z" fill="white"/>
<path d="M1.9 161.6C2.94934 161.6 3.8 160.749 3.8 159.7C3.8 158.651 2.94934 157.8 1.9 157.8C0.85066 157.8 0 158.651 0 159.7C0 160.749 0.85066 161.6 1.9 161.6Z" fill="white"/>
<path d="M1.9 169.7C2.94934 169.7 3.8 168.849 3.8 167.8C3.8 166.751 2.94934 165.9 1.9 165.9C0.85066 165.9 0 166.751 0 167.8C0 168.849 0.85066 169.7 1.9 169.7Z" fill="white"/>
<path d="M1.9 177.8C2.94934 177.8 3.8 176.949 3.8 175.9C3.8 174.851 2.94934 174 1.9 174C0.85066 174 0 174.851 0 175.9C0 176.949 0.85066 177.8 1.9 177.8Z" fill="white"/>
<path d="M1.9 185.9C2.94934 185.9 3.8 185.049 3.8 184C3.8 182.951 2.94934 182.1 1.9 182.1C0.85066 182.1 0 182.951 0 184C0 185.049 0.85066 185.9 1.9 185.9Z" fill="white"/>
<path d="M1.9 193.9C0.900002 193.9 0 193.1 0 192C0 190.9 0.800002 190.1 1.9 190.1C3 190.1 3.8 190.9 3.8 192C3.8 193.1 3 193.9 1.9 193.9Z" fill="white"/>
<path d="M1.9 202C0.900002 202 0 201.2 0 200.1C0 199.1 0.800002 198.2 1.9 198.2C3 198.2 3.8 199 3.8 200.1C3.8 201.2 3 202 1.9 202Z" fill="white"/>
<path d="M1.9 210.1C0.900002 210.1 0 209.3 0 208.2C0 207.2 0.800002 206.3 1.9 206.3C3 206.3 3.8 207.1 3.8 208.2C3.8 209.3 3 210.1 1.9 210.1Z" fill="white"/>
<path d="M1.9 218.2C0.900002 218.2 0 217.4 0 216.3C0 215.3 0.800002 214.4 1.9 214.4C3 214.4 3.8 215.2 3.8 216.3C3.8 217.4 3 218.2 1.9 218.2Z" fill="white"/>
<path d="M1.9 226.3C0.900002 226.3 0 225.5 0 224.4C0 223.4 0.800002 222.5 1.9 222.5C3 222.5 3.8 223.3 3.8 224.4C3.8 225.5 3 226.3 1.9 226.3Z" fill="white"/>
<path d="M1.9 234.4C0.900002 234.4 0 233.6 0 232.5C0 231.5 0.800002 230.6 1.9 230.6C3 230.6 3.8 231.4 3.8 232.5C3.8 233.6 3 234.4 1.9 234.4Z" fill="white"/>
<path d="M1.9 242.5C0.900002 242.5 0 241.7 0 240.6C0 239.6 0.800002 238.7 1.9 238.7C3 238.7 3.8 239.5 3.8 240.6C3.8 241.7 3 242.5 1.9 242.5Z" fill="white"/>
<path d="M1.9 250.6C0.900002 250.6 0 249.8 0 248.7C0 247.6 0.800002 246.8 1.9 246.8C3 246.8 3.8 247.6 3.8 248.7C3.8 249.8 3 250.6 1.9 250.6Z" fill="white"/>
<path d="M1.9 258.7C2.94934 258.7 3.8 257.849 3.8 256.8C3.8 255.751 2.94934 254.9 1.9 254.9C0.85066 254.9 0 255.751 0 256.8C0 257.849 0.85066 258.7 1.9 258.7Z" fill="white"/>
<path d="M1.9 266.8C2.94934 266.8 3.8 265.949 3.8 264.9C3.8 263.851 2.94934 263 1.9 263C0.85066 263 0 263.851 0 264.9C0 265.949 0.85066 266.8 1.9 266.8Z" fill="white"/>
<path d="M1.9 274.9C0.900002 274.9 0 274.1 0 273C0 272 0.800002 271.1 1.9 271.1C3 271.1 3.8 271.9 3.8 273C3.8 274 3 274.9 1.9 274.9Z" fill="white"/>
<path d="M1.9 283C2.94934 283 3.8 282.149 3.8 281.1C3.8 280.051 2.94934 279.2 1.9 279.2C0.85066 279.2 0 280.051 0 281.1C0 282.149 0.85066 283 1.9 283Z" fill="white"/>
<path d="M20.6998 3.8C21.7491 3.8 22.5998 2.94934 22.5998 1.89999C22.5998 0.850653 21.7491 0 20.6998 0C19.6505 0 18.7998 0.850653 18.7998 1.89999C18.7998 2.94934 19.6505 3.8 20.6998 3.8Z" fill="white"/>
<path d="M20.6998 11.9001C21.7491 11.9001 22.5998 11.0494 22.5998 10.0001C22.5998 8.95076 21.7491 8.1001 20.6998 8.1001C19.6505 8.1001 18.7998 8.95076 18.7998 10.0001C18.7998 11.0494 19.6505 11.9001 20.6998 11.9001Z" fill="white"/>
<path d="M20.6998 20C21.7491 20 22.5998 19.1493 22.5998 18.1C22.5998 17.0506 21.7491 16.2 20.6998 16.2C19.6505 16.2 18.7998 17.0506 18.7998 18.1C18.7998 19.1493 19.6505 20 20.6998 20Z" fill="white"/>
<path d="M20.6998 28C21.7491 28 22.5998 27.1493 22.5998 26.1C22.5998 25.0506 21.7491 24.2 20.6998 24.2C19.6505 24.2 18.7998 25.0506 18.7998 26.1C18.7998 27.1493 19.6505 28 20.6998 28Z" fill="white"/>
<path d="M20.6998 36.1001C21.7491 36.1001 22.5998 35.2494 22.5998 34.2001C22.5998 33.1507 21.7491 32.3 20.6998 32.3C19.6505 32.3 18.7998 33.1507 18.7998 34.2001C18.7998 35.2494 19.6505 36.1001 20.6998 36.1001Z" fill="white"/>
<path d="M20.6998 44.1999C19.6998 44.1999 18.7998 43.3999 18.7998 42.2999C18.7998 41.1999 19.5998 40.3999 20.6998 40.3999C21.7998 40.3999 22.5998 41.1999 22.5998 42.2999C22.5998 43.3999 21.7998 44.1999 20.6998 44.1999Z" fill="white"/>
<path d="M20.6998 52.3C19.6998 52.3 18.7998 51.5 18.7998 50.4C18.7998 49.3 19.5998 48.5 20.6998 48.5C21.7998 48.5 22.5998 49.3 22.5998 50.4C22.5998 51.5 21.7998 52.3 20.6998 52.3Z" fill="white"/>
<path d="M20.6998 60.4001C19.6998 60.4001 18.7998 59.6001 18.7998 58.5001C18.7998 57.5001 19.5998 56.6001 20.6998 56.6001C21.7998 56.6001 22.5998 57.4001 22.5998 58.5001C22.5998 59.6001 21.7998 60.4001 20.6998 60.4001Z" fill="white"/>
<path d="M20.6998 68.5C19.6998 68.5 18.7998 67.7 18.7998 66.6C18.7998 65.6 19.5998 64.7 20.6998 64.7C21.7998 64.7 22.5998 65.5 22.5998 66.6C22.5998 67.6 21.7998 68.5 20.6998 68.5Z" fill="white"/>
<path d="M20.6998 76.6001C19.6998 76.6001 18.7998 75.8001 18.7998 74.7001C18.7998 73.7001 19.5998 72.8 20.6998 72.8C21.7998 72.8 22.5998 73.6001 22.5998 74.7001C22.5998 75.7001 21.7998 76.6001 20.6998 76.6001Z" fill="white"/>
<path d="M20.6998 84.6999C19.6998 84.6999 18.7998 83.8999 18.7998 82.7999C18.7998 81.6999 19.5998 80.8999 20.6998 80.8999C21.7998 80.8999 22.5998 81.6999 22.5998 82.7999C22.5998 83.8999 21.7998 84.6999 20.6998 84.6999Z" fill="white"/>
<path d="M20.6998 92.8C19.6998 92.8 18.7998 92 18.7998 90.9C18.7998 89.9 19.5998 89 20.6998 89C21.7998 89 22.5998 89.8 22.5998 90.9C22.5998 91.9 21.7998 92.8 20.6998 92.8Z" fill="white"/>
<path d="M20.6998 100.9C19.6998 100.9 18.7998 100.1 18.7998 99.0001C18.7998 98.0001 19.5998 97.1001 20.6998 97.1001C21.7998 97.1001 22.5998 97.9001 22.5998 99.0001C22.5998 100 21.7998 100.9 20.6998 100.9Z" fill="white"/>
<path d="M20.6998 109C21.7491 109 22.5998 108.149 22.5998 107.1C22.5998 106.051 21.7491 105.2 20.6998 105.2C19.6505 105.2 18.7998 106.051 18.7998 107.1C18.7998 108.149 19.6505 109 20.6998 109Z" fill="white"/>
<path d="M20.6998 117.1C21.7491 117.1 22.5998 116.249 22.5998 115.2C22.5998 114.151 21.7491 113.3 20.6998 113.3C19.6505 113.3 18.7998 114.151 18.7998 115.2C18.7998 116.249 19.6505 117.1 20.6998 117.1Z" fill="white"/>
<path d="M20.6998 125.2C21.7491 125.2 22.5998 124.349 22.5998 123.3C22.5998 122.251 21.7491 121.4 20.6998 121.4C19.6505 121.4 18.7998 122.251 18.7998 123.3C18.7998 124.349 19.6505 125.2 20.6998 125.2Z" fill="white"/>
<path d="M20.6998 133.2C19.6998 133.2 18.7998 132.4 18.7998 131.3C18.7998 130.2 19.6998 129.5 20.6998 129.5C21.6998 129.5 22.5998 130.3 22.5998 131.4C22.5998 132.5 21.7998 133.2 20.6998 133.2Z" fill="white"/>
<path d="M20.6998 141.4C21.7491 141.4 22.5998 140.549 22.5998 139.5C22.5998 138.451 21.7491 137.6 20.6998 137.6C19.6505 137.6 18.7998 138.451 18.7998 139.5C18.7998 140.549 19.6505 141.4 20.6998 141.4Z" fill="white"/>
<path d="M20.6998 149.4C19.6998 149.4 18.7998 148.6 18.7998 147.5C18.7998 146.5 19.5998 145.6 20.6998 145.6C21.7998 145.6 22.5998 146.4 22.5998 147.5C22.5998 148.6 21.7998 149.4 20.6998 149.4Z" fill="white"/>
<path d="M20.6998 157.5C19.6998 157.5 18.7998 156.7 18.7998 155.6C18.7998 154.5 19.5998 153.7 20.6998 153.7C21.7998 153.7 22.5998 154.5 22.5998 155.6C22.5998 156.7 21.7998 157.5 20.6998 157.5Z" fill="white"/>
<path d="M20.6998 165.6C19.6998 165.6 18.7998 164.8 18.7998 163.7C18.7998 162.7 19.5998 161.8 20.6998 161.8C21.7998 161.8 22.5998 162.6 22.5998 163.7C22.5998 164.8 21.7998 165.6 20.6998 165.6Z" fill="white"/>
<path d="M20.6998 173.7C19.6998 173.7 18.7998 172.9 18.7998 171.8C18.7998 170.8 19.5998 169.9 20.6998 169.9C21.7998 169.9 22.5998 170.7 22.5998 171.8C22.5998 172.9 21.7998 173.7 20.6998 173.7Z" fill="white"/>
<path d="M20.6998 181.8C19.6998 181.8 18.7998 181 18.7998 179.9C18.7998 178.9 19.5998 178 20.6998 178C21.7998 178 22.5998 178.8 22.5998 179.9C22.5998 181 21.7998 181.8 20.6998 181.8Z" fill="white"/>
<path d="M20.6998 189.9C19.6998 189.9 18.7998 189.1 18.7998 188C18.7998 187 19.5998 186.1 20.6998 186.1C21.7998 186.1 22.5998 186.9 22.5998 188C22.5998 189.1 21.7998 189.9 20.6998 189.9Z" fill="white"/>
<path d="M20.6998 198C19.6998 198 18.7998 197.2 18.7998 196.1C18.7998 195.1 19.5998 194.2 20.6998 194.2C21.7998 194.2 22.5998 195 22.5998 196.1C22.5998 197.2 21.7998 198 20.6998 198Z" fill="white"/>
<path d="M20.6998 206.1C19.6998 206.1 18.7998 205.3 18.7998 204.2C18.7998 203.2 19.5998 202.3 20.6998 202.3C21.7998 202.3 22.5998 203.1 22.5998 204.2C22.5998 205.2 21.7998 206.1 20.6998 206.1Z" fill="white"/>
<path d="M20.6998 214.2C21.7491 214.2 22.5998 213.349 22.5998 212.3C22.5998 211.251 21.7491 210.4 20.6998 210.4C19.6505 210.4 18.7998 211.251 18.7998 212.3C18.7998 213.349 19.6505 214.2 20.6998 214.2Z" fill="white"/>
<path d="M20.6998 222.3C21.7491 222.3 22.5998 221.449 22.5998 220.4C22.5998 219.351 21.7491 218.5 20.6998 218.5C19.6505 218.5 18.7998 219.351 18.7998 220.4C18.7998 221.449 19.6505 222.3 20.6998 222.3Z" fill="white"/>
<path d="M20.6998 230.4C21.7491 230.4 22.5998 229.549 22.5998 228.5C22.5998 227.451 21.7491 226.6 20.6998 226.6C19.6505 226.6 18.7998 227.451 18.7998 228.5C18.7998 229.549 19.6505 230.4 20.6998 230.4Z" fill="white"/>
<path d="M20.6998 238.5C21.7491 238.5 22.5998 237.649 22.5998 236.6C22.5998 235.551 21.7491 234.7 20.6998 234.7C19.6505 234.7 18.7998 235.551 18.7998 236.6C18.7998 237.649 19.6505 238.5 20.6998 238.5Z" fill="white"/>
</svg>
