<svg width="80" height="80" viewBox="0 0 80 80" fill="none" xmlns="http://www.w3.org/2000/svg">
<circle cx="40" cy="40" r="40" fill="white"/>
<path d="M25.4288 54.16C22.9488 54.16 21.0288 53.52 19.6688 52.24C18.3354 50.9333 17.6688 49.0267 17.6688 46.52V32.12C17.6688 29.5333 18.3621 27.56 19.7488 26.2C21.1354 24.84 23.0421 24.16 25.4688 24.16H31.6288C34.1354 24.16 36.0154 24.8667 37.2688 26.28C38.5221 27.6667 39.1488 29.6133 39.1488 32.12V46.52C39.1488 49 38.4821 50.8933 37.1488 52.2C35.8421 53.5067 34.0021 54.16 31.6288 54.16H25.4288ZM26.8288 48.84H30.0288C32.1621 48.84 33.2288 47.7733 33.2288 45.64V32.68C33.2288 31.5067 32.9621 30.68 32.4288 30.2C31.8954 29.72 31.1754 29.48 30.2688 29.48H26.6288C24.6021 29.48 23.5888 30.5467 23.5888 32.68V45.6C23.5888 46.7467 23.8688 47.5733 24.4288 48.08C24.9888 48.5867 25.7888 48.84 26.8288 48.84ZM54.2072 54.24C52.0739 54.24 50.0339 54.16 48.0872 54C46.1672 53.8667 44.4339 53.6667 42.8872 53.4V48.64H51.9672C53.5939 48.64 54.7805 48.4533 55.5272 48.08C56.3005 47.7067 56.6872 46.9733 56.6872 45.88V44.64C56.6872 43.5733 56.3139 42.8267 55.5672 42.4C54.8205 41.9733 53.9005 41.7333 52.8072 41.68L45.5272 41.4V36.84L52.5672 36.44C53.7672 36.3867 54.7005 36.1733 55.3672 35.8C56.0339 35.4267 56.3672 34.7867 56.3672 33.88V32.88C56.3672 31.8133 56.0072 31.0267 55.2872 30.52C54.5939 30.0133 53.4205 29.76 51.7672 29.76H43.5272V25.04C45.0472 24.8 46.7005 24.5867 48.4872 24.4C50.2739 24.2133 52.1539 24.1333 54.1272 24.16C56.7139 24.1867 58.7005 24.8267 60.0872 26.08C61.5005 27.3067 62.2072 29.1067 62.2072 31.48V33.68C62.2072 35.2267 61.8472 36.44 61.1272 37.32C60.4339 38.1733 59.5672 38.7733 58.5272 39.12C59.6205 39.44 60.5805 40.1467 61.4072 41.24C62.2339 42.3067 62.6472 43.7067 62.6472 45.44V46.96C62.6472 49.3333 61.9005 51.1467 60.4072 52.4C58.9139 53.6267 56.8472 54.24 54.2072 54.24Z" fill="#3CB335"/>
</svg>
