<svg width="80" height="80" viewBox="0 0 80 80" fill="none" xmlns="http://www.w3.org/2000/svg">
<circle cx="40" cy="40" r="40" fill="white"/>
<path d="M27.96 55.16C25.48 55.16 23.56 54.52 22.2 53.24C20.8667 51.9333 20.2 50.0267 20.2 47.52V33.12C20.2 30.5333 20.8933 28.56 22.28 27.2C23.6667 25.84 25.5733 25.16 28 25.16H34.16C36.6667 25.16 38.5467 25.8667 39.8 27.28C41.0533 28.6667 41.68 30.6133 41.68 33.12V47.52C41.68 50 41.0133 51.8933 39.68 53.2C38.3733 54.5067 36.5333 55.16 34.16 55.16H27.96ZM29.36 49.84H32.56C34.6933 49.84 35.76 48.7733 35.76 46.64V33.68C35.76 32.5067 35.4933 31.68 34.96 31.2C34.4267 30.72 33.7067 30.48 32.8 30.48H29.16C27.1333 30.48 26.12 31.5467 26.12 33.68V46.6C26.12 47.7467 26.4 48.5733 26.96 49.08C27.52 49.5867 28.32 49.84 29.36 49.84ZM50.3784 55V30.8L45.1384 31.48V27.68L51.0184 25.12H56.2984V55H50.3784Z" fill="#3CB335"/>
</svg>
