<svg width="80" height="80" viewBox="0 0 80 80" fill="none" xmlns="http://www.w3.org/2000/svg">
<circle cx="40" cy="40" r="40" fill="white"/>
<path d="M25.128 54.16C22.648 54.16 20.728 53.52 19.368 52.24C18.0346 50.9333 17.368 49.0267 17.368 46.52V32.12C17.368 29.5333 18.0613 27.56 19.448 26.2C20.8346 24.84 22.7413 24.16 25.168 24.16H31.328C33.8346 24.16 35.7146 24.8667 36.968 26.28C38.2213 27.6667 38.848 29.6133 38.848 32.12V46.52C38.848 49 38.1813 50.8933 36.848 52.2C35.5413 53.5067 33.7013 54.16 31.328 54.16H25.128ZM26.528 48.84H29.728C31.8613 48.84 32.928 47.7733 32.928 45.64V32.68C32.928 31.5067 32.6613 30.68 32.128 30.2C31.5946 29.72 30.8746 29.48 29.968 29.48H26.328C24.3013 29.48 23.288 30.5467 23.288 32.68V45.6C23.288 46.7467 23.568 47.5733 24.128 48.08C24.688 48.5867 25.488 48.84 26.528 48.84ZM56.0664 53.96V47.72H43.1064L41.9864 44.92L51.5864 24.4H57.6264L49.0264 42.68H56.0664V36.92L57.2264 33.52H61.9864V42.68H65.0264V46.76L61.9864 47.72V53.96H56.0664Z" fill="#3CB335"/>
</svg>
