<svg width="80" height="80" viewBox="0 0 80 80" fill="none" xmlns="http://www.w3.org/2000/svg">
<circle cx="40" cy="40" r="40" fill="white"/>
<path d="M25.292 54.16C22.812 54.16 20.892 53.52 19.532 52.24C18.1987 50.9333 17.532 49.0267 17.532 46.52V32.12C17.532 29.5333 18.2254 27.56 19.612 26.2C20.9987 24.84 22.9054 24.16 25.332 24.16H31.492C33.9987 24.16 35.8787 24.8667 37.132 26.28C38.3854 27.6667 39.012 29.6133 39.012 32.12V46.52C39.012 49 38.3454 50.8933 37.012 52.2C35.7054 53.5067 33.8654 54.16 31.492 54.16H25.292ZM26.692 48.84H29.892C32.0254 48.84 33.092 47.7733 33.092 45.64V32.68C33.092 31.5067 32.8254 30.68 32.292 30.2C31.7587 29.72 31.0387 29.48 30.132 29.48H26.492C24.4654 29.48 23.452 30.5467 23.452 32.68V45.6C23.452 46.7467 23.732 47.5733 24.292 48.08C24.852 48.5867 25.652 48.84 26.692 48.84ZM43.0705 54V49.24L52.9505 39.44C54.1238 38.2933 54.9905 37.2533 55.5505 36.32C56.1371 35.36 56.4305 34.32 56.4305 33.2C56.4305 32.1333 56.1105 31.2933 55.4705 30.68C54.8305 30.0667 53.6971 29.76 52.0705 29.76H43.7505V25.12C45.0305 24.88 46.4438 24.6667 47.9905 24.48C49.5638 24.2667 51.3105 24.16 53.2305 24.16C55.5505 24.16 57.3638 24.48 58.6705 25.12C60.0038 25.76 60.9505 26.68 61.5105 27.88C62.0705 29.08 62.3505 30.5333 62.3505 32.24C62.3505 34.24 61.9505 35.9867 61.1505 37.48C60.3505 38.9733 59.1638 40.4933 57.5905 42.04L50.9505 48.64H63.2705V54H43.0705Z" fill="#3CB335"/>
</svg>
