<svg width="40" height="40" viewBox="0 0 40 40" fill="none" xmlns="http://www.w3.org/2000/svg">
<circle cx="21" cy="19" r="15" fill="white"/>
<path d="M25.9999 19.9998C25.9999 21.5911 25.3678 23.1172 24.2425 24.2424C23.1173 25.3677 21.5912 25.9998 19.9999 25.9998C18.4086 25.9998 16.8825 25.3677 15.7573 24.2424C14.632 23.1172 13.9999 21.5911 13.9999 19.9998C13.9999 19.6578 14.0359 19.3238 14.0979 18.9998H11.9999V26.9938C11.9999 27.5498 12.4499 27.9998 13.0059 27.9998H26.9959C27.2624 27.9993 27.5177 27.8931 27.706 27.7044C27.8942 27.5158 27.9999 27.2603 27.9999 26.9938V18.9998H25.9019C25.9639 19.3238 25.9999 19.6578 25.9999 19.9998ZM19.9999 23.9998C20.5253 23.9997 21.0456 23.8961 21.5309 23.6949C22.0163 23.4937 22.4573 23.1989 22.8287 22.8272C23.2002 22.4556 23.4948 22.0145 23.6957 21.529C23.8967 21.0435 24 20.5232 23.9999 19.9978C23.9998 19.4724 23.8961 18.9521 23.695 18.4668C23.4938 17.9814 23.1989 17.5404 22.8273 17.169C22.4557 16.7975 22.0146 16.5029 21.5291 16.302C21.0436 16.101 20.5233 15.9977 19.9979 15.9978C18.9368 15.9981 17.9192 16.4199 17.1691 17.1704C16.4189 17.9209 15.9976 18.9387 15.9979 19.9998C15.9982 21.0609 16.4199 22.0785 17.1705 22.8286C17.921 23.5788 18.9388 24.0001 19.9999 23.9998ZM24.7999 15.7998H27.1979C27.3572 15.7998 27.51 15.7367 27.6229 15.6242C27.7357 15.5117 27.7994 15.3591 27.7999 15.1998V12.8018C27.7999 12.6421 27.7365 12.489 27.6236 12.3761C27.5107 12.2632 27.3576 12.1998 27.1979 12.1998H24.7999C24.6402 12.1998 24.4871 12.2632 24.3742 12.3761C24.2613 12.489 24.1979 12.6421 24.1979 12.8018V15.1998C24.1999 15.5298 24.4699 15.7998 24.7999 15.7998ZM19.9999 0.799805C14.9077 0.799805 10.0241 2.82266 6.42345 6.42335C2.82275 10.0241 0.799896 14.9076 0.799896 19.9998C0.799896 25.092 2.82275 29.9756 6.42345 33.5763C10.0241 37.177 14.9077 39.1998 19.9999 39.1998C22.5213 39.1998 25.018 38.7032 27.3474 37.7383C29.6769 36.7734 31.7935 35.3591 33.5763 33.5763C35.3592 31.7934 36.7735 29.6768 37.7384 27.3473C38.7033 25.0179 39.1999 22.5212 39.1999 19.9998C39.1999 17.4784 38.7033 14.9817 37.7384 12.6523C36.7735 10.3228 35.3592 8.20624 33.5763 6.42335C31.7935 4.64047 29.6769 3.22621 27.3474 2.26132C25.018 1.29643 22.5213 0.799805 19.9999 0.799805ZM29.9999 27.7778C29.9999 28.9998 28.9999 29.9998 27.7779 29.9998H12.2219C10.9999 29.9998 9.9999 28.9998 9.9999 27.7778V12.2218C9.9999 10.9998 10.9999 9.9998 12.2219 9.9998H27.7779C28.9999 9.9998 29.9999 10.9998 29.9999 12.2218V27.7778Z" fill="url(#paint0_linear)"/>
<defs>
<linearGradient id="paint0_linear" x1="19.9999" y1="0.799805" x2="19.9999" y2="39.1998" gradientUnits="userSpaceOnUse">
<stop stop-color="#8DCD1B"/>
<stop offset="1" stop-color="#20A93B"/>
</linearGradient>
</defs>
</svg>
