<svg width="300" height="225" viewBox="0 0 300 225" fill="none" xmlns="http://www.w3.org/2000/svg">
<g filter="url(#filter0_d)">
<path fill-rule="evenodd" clip-rule="evenodd" d="M36.4213 189.319L32.0623 179.341H16.2608L11.7202 189.319H5L24.0707 149.584L43.3231 189.319H36.4213ZM24.2523 161.137C24.0707 161.837 23.8891 162.537 23.7075 163.412C23.5258 164.113 23.1626 164.813 22.7993 165.513L18.8036 174.265H29.7011L25.7054 165.513C25.5237 164.988 25.1605 164.288 24.9789 163.763C24.7972 163.237 24.6156 162.537 24.434 162.012C24.434 161.837 24.434 161.837 24.2523 161.662C24.2523 161.487 24.2523 161.312 24.2523 161.137ZM49.4984 189.319V150.985H60.2143C60.7592 150.985 61.1224 150.985 61.6673 150.985C62.2122 150.985 62.5754 150.985 63.1203 150.985C64.2101 150.985 65.2998 151.16 66.3896 151.51C67.4793 151.685 68.3875 152.21 69.2956 152.91C70.567 153.785 71.4751 154.835 72.02 156.061C72.7465 157.286 73.1097 158.686 73.1097 160.087V160.262V160.437C73.1097 162.187 72.5648 163.938 71.6567 165.513C70.7486 167.088 69.2956 168.139 67.4793 168.839C69.8405 169.364 71.4751 170.414 72.7465 172.165C74.0178 173.915 74.7444 175.84 74.7444 177.941C74.7444 178.116 74.7444 178.116 74.7444 178.291C74.7444 178.466 74.7444 178.466 74.7444 178.641C74.7444 178.816 74.7444 178.816 74.7444 178.991C74.7444 179.166 74.7444 179.166 74.7444 179.341C74.5627 180.917 74.1995 182.317 73.473 183.717C72.7465 185.118 71.6567 186.343 70.2037 187.218C69.2956 187.743 68.3874 188.268 67.2977 188.443C66.2079 188.793 65.1182 188.968 63.8468 188.968C63.3019 188.968 62.5754 188.968 62.0305 189.144C61.4857 189.144 60.9408 189.144 60.2143 189.144H49.4984V189.319ZM55.8553 184.067C56.0369 184.067 56.2185 184.067 56.5818 184.067C56.7634 184.067 56.945 184.067 57.3083 184.067C57.3083 184.067 57.3083 184.067 57.4899 184.067C57.4899 184.067 57.4899 184.067 57.6715 184.067C57.8531 184.067 58.0348 184.067 58.2164 184.067C58.398 184.067 58.5796 184.067 58.7613 184.067C59.1245 184.067 59.3061 184.067 59.6694 184.067C60.0327 184.067 60.2143 184.067 60.5775 184.067C62.5754 184.067 64.3917 183.542 66.0263 182.842C67.6609 182.142 68.5691 180.566 68.5691 178.116V177.941C68.5691 175.49 67.8426 173.915 66.2079 173.215C64.5733 172.515 62.757 171.989 60.7592 171.989C60.5775 171.989 60.2143 171.989 60.0326 171.989C59.6694 171.989 59.4878 171.989 59.3062 171.989H56.4001V184.067H55.8553ZM55.8553 156.236V167.263C56.0369 167.263 56.2185 167.263 56.4001 167.263C56.5818 167.263 56.7634 167.263 56.945 167.263C57.1266 167.263 57.3083 167.263 57.4899 167.263C57.6715 167.263 57.8531 167.263 58.2164 167.263C58.5796 167.263 58.7613 167.263 59.1245 167.263C59.4878 167.263 59.6694 167.263 60.0326 167.263C61.6673 167.263 63.1203 166.738 64.5733 166.213C66.0263 165.513 66.5712 164.288 66.7528 162.537V161.837C66.7528 159.386 65.8447 157.986 64.21 157.286C62.5754 156.586 60.7592 156.411 58.7613 156.236H58.5796H58.398H55.8553ZM114.702 160.262C112.886 158.861 110.888 157.636 108.89 156.936C106.892 156.236 104.713 155.711 102.533 155.711C101.988 155.711 101.443 155.711 100.898 155.711C100.354 155.711 99.8087 155.886 99.2639 155.886C95.6313 156.586 92.9069 158.161 90.9091 160.787C88.9112 163.412 88.003 166.213 87.8214 169.364C87.8214 169.539 87.8214 169.539 87.8214 169.714C87.8214 169.889 87.8214 169.889 87.8214 170.064C87.8214 170.239 87.8214 170.239 87.8214 170.414C87.8214 170.589 87.8214 170.589 87.8214 170.764C88.003 173.565 88.9112 176.19 90.5458 178.641C92.1804 181.092 94.7232 182.842 97.8108 183.717C98.1741 183.717 98.5374 183.892 98.9006 183.892C99.2639 183.892 99.6271 184.067 99.9903 184.067C100.354 184.067 100.717 184.067 101.08 184.242C101.443 184.242 101.807 184.242 102.17 184.242C104.531 184.242 106.711 183.717 108.89 182.842C111.07 181.967 113.067 180.742 114.884 179.341V186.343C113.612 187.218 112.159 187.918 110.888 188.268C109.435 188.793 107.982 189.144 106.529 189.494C105.802 189.494 105.076 189.669 104.531 189.669C103.804 189.669 103.26 189.844 102.533 189.844C97.4476 189.844 92.7253 188.268 88.5479 185.118C84.3705 181.967 82.0094 177.591 81.4645 171.814C81.4645 171.639 81.4645 171.464 81.4645 171.289C81.4645 171.114 81.4645 170.939 81.4645 170.764C81.4645 170.589 81.4645 170.414 81.4645 170.414C81.4645 170.239 81.4645 170.064 81.4645 169.889C81.4645 164.813 83.2808 160.437 86.7317 156.586C90.1826 152.735 94.5416 150.634 99.9903 150.109C100.172 150.109 100.172 150.109 100.354 150.109C100.535 150.109 100.535 150.109 100.717 150.109C101.08 150.109 101.443 150.109 101.807 150.109C102.17 150.109 102.533 150.109 102.715 150.109C104.894 150.109 107.074 150.459 109.253 151.16C111.251 151.86 113.249 152.735 115.429 153.96L114.702 160.262Z" fill="#42436F"/>
<path fill-rule="evenodd" clip-rule="evenodd" d="M67.4794 36.8575L103.986 52.7863C98.719 58.7377 95.6314 66.0894 95.6314 74.1413C95.6314 83.9437 100.354 92.8708 108.164 99.3473C116.155 105.999 127.053 110.2 139.222 110.2C143.217 110.2 147.213 109.675 150.846 108.975C154.66 108.099 158.292 106.874 161.562 105.299C163.923 104.248 166.647 104.949 167.919 107.049C170.098 110.55 171.733 114.576 173.186 118.777C173.186 111.6 172.459 105.649 171.733 101.098C171.551 99.5223 171.914 98.122 173.004 97.0718C176.092 93.921 178.634 90.2452 180.451 86.2192C182.085 82.5433 182.993 78.3423 182.993 74.1413C182.993 66.0894 179.906 58.7377 174.457 52.7863L188.442 46.6598V93.3959C187.171 94.0961 186.444 95.3214 186.444 96.8967C186.444 99.1723 188.261 100.923 190.622 100.923C192.983 100.923 194.799 99.1723 194.799 96.8967C194.799 95.4964 193.891 94.0961 192.801 93.3959V44.7344L211.327 36.6825L139.585 5L67.4794 36.8575ZM110.343 49.2855C130.14 40.5334 149.211 39.8332 167.555 49.2855V58.3876C149.211 49.9856 130.14 50.5108 110.343 58.5627V49.2855ZM171.733 60.4881C174.457 64.5141 175.91 69.0651 175.91 74.1413C175.91 77.4671 175.184 80.6179 173.912 83.5936C172.459 86.9194 170.461 89.72 167.919 92.3456C166.284 93.921 165.376 95.8465 164.831 97.947C162.651 97.7719 160.29 98.122 158.292 99.1723C155.386 100.573 152.299 101.623 149.211 102.323C145.942 103.023 142.491 103.373 139.222 103.373C129.595 103.373 119.969 100.398 112.704 94.2711C106.529 89.0199 102.533 82.0182 102.533 73.9663C102.533 69.4152 103.805 65.0392 106.166 61.1883V49.1104C106.166 47.5351 107.074 46.1347 108.527 45.4346C128.869 36.3324 149.393 35.2822 169.372 45.6096C170.825 46.3098 171.551 47.7101 171.551 49.1104V60.4881H171.733Z" fill="url(#paint0_linear)"/>
<path d="M128.506 128.081H274.704C280.227 128.081 284.704 132.558 284.704 138.081V209.908H138.506C132.983 209.908 128.506 205.431 128.506 199.908V128.081Z" fill="url(#paint1_linear)"/>
<path d="M169.25 175.45L171.95 179.65C170.05 182.25 167.067 183.55 163 183.55C159.367 183.55 156.417 182.467 154.15 180.3C151.917 178.167 150.8 175.317 150.8 171.75C150.8 168.383 151.9 165.583 154.1 163.35C156.3 161.083 159.083 159.95 162.45 159.95C166.45 159.95 169.467 160.967 171.5 163L168.8 167.55C167.267 166.083 165.4 165.35 163.2 165.35C161.533 165.35 160.067 165.95 158.8 167.15C157.567 168.283 156.95 169.817 156.95 171.75C156.95 173.683 157.583 175.25 158.85 176.45C160.183 177.617 161.717 178.2 163.45 178.2C165.683 178.2 167.617 177.283 169.25 175.45ZM178.315 166.3L176.865 162.1C179.299 160.667 181.949 159.95 184.815 159.95C187.949 159.95 190.232 160.717 191.665 162.25C193.099 163.783 193.815 166.133 193.815 169.3V183H188.815V180.4C187.482 182.333 185.265 183.3 182.165 183.3C180.032 183.3 178.315 182.683 177.015 181.45C175.749 180.183 175.115 178.5 175.115 176.4C175.115 174.067 175.865 172.267 177.365 171C178.865 169.733 180.849 169.1 183.315 169.1C185.349 169.1 187.049 169.583 188.415 170.55C188.482 168.55 188.182 167.083 187.515 166.15C186.882 165.217 185.782 164.75 184.215 164.75C182.482 164.75 180.515 165.267 178.315 166.3ZM184.065 178.45C185.999 178.45 187.449 177.767 188.415 176.4V174.1C187.482 173.367 186.165 173 184.465 173C183.399 173 182.532 173.25 181.865 173.75C181.199 174.25 180.865 174.933 180.865 175.8C180.865 176.6 181.165 177.25 181.765 177.75C182.365 178.217 183.132 178.45 184.065 178.45ZM233.86 168.3V183H228.11V169.8C228.11 166.933 226.826 165.5 224.26 165.5C222.06 165.5 220.51 166.367 219.61 168.1C219.61 168.167 219.61 168.433 219.61 168.9C219.643 169.333 219.66 169.617 219.66 169.75V183H213.91V169.4C213.91 168.2 213.576 167.25 212.91 166.55C212.276 165.85 211.36 165.5 210.16 165.5C208.06 165.5 206.493 166.3 205.46 167.9V183H199.71V160.5H205.46V163C207.193 161.067 209.543 160.1 212.51 160.1C214.143 160.1 215.526 160.433 216.66 161.1C217.826 161.733 218.626 162.6 219.06 163.7C220.893 161.3 223.426 160.1 226.66 160.1C231.46 160.1 233.86 162.833 233.86 168.3ZM245.45 193H239.7V160.5H245.45V162.65C246.183 161.85 247.183 161.2 248.45 160.7C249.717 160.2 251.033 159.95 252.4 159.95C255.5 159.95 257.967 161.017 259.8 163.15C261.667 165.317 262.6 168.067 262.6 171.4C262.6 174.9 261.5 177.8 259.3 180.1C257.1 182.4 254.233 183.55 250.7 183.55C248.433 183.55 246.683 183.183 245.45 182.45V193ZM250.6 165.35C248.6 165.35 246.883 166.167 245.45 167.8V176.9C246.817 177.767 248.4 178.2 250.2 178.2C252.1 178.2 253.617 177.583 254.75 176.35C255.917 175.117 256.5 173.517 256.5 171.55C256.5 169.683 255.967 168.183 254.9 167.05C253.867 165.917 252.433 165.35 250.6 165.35Z" fill="white"/>
</g>
<defs>
<filter id="filter0_d" x="0" y="0" width="299.704" height="224.908" filterUnits="userSpaceOnUse" color-interpolation-filters="sRGB">
<feFlood flood-opacity="0" result="BackgroundImageFix"/>
<feColorMatrix in="SourceAlpha" type="matrix" values="0 0 0 0 0 0 0 0 0 0 0 0 0 0 0 0 0 0 127 0"/>
<feOffset dx="5" dy="5"/>
<feGaussianBlur stdDeviation="5"/>
<feColorMatrix type="matrix" values="0 0 0 0 0 0 0 0 0 0 0 0 0 0 0 0 0 0 0.25 0"/>
<feBlend mode="normal" in2="BackgroundImageFix" result="effect1_dropShadow"/>
<feBlend mode="normal" in="SourceGraphic" in2="effect1_dropShadow" result="shape"/>
</filter>
<linearGradient id="paint0_linear" x1="139.403" y1="5" x2="139.403" y2="118.777" gradientUnits="userSpaceOnUse">
<stop stop-color="#9DD115"/>
<stop offset="1" stop-color="#02A238"/>
</linearGradient>
<linearGradient id="paint1_linear" x1="206.605" y1="128.081" x2="206.605" y2="209.908" gradientUnits="userSpaceOnUse">
<stop stop-color="#9CC930"/>
<stop offset="1" stop-color="#07A03F"/>
</linearGradient>
</defs>
</svg>
