<svg width="154" height="123" viewBox="0 0 154 123" fill="none" xmlns="http://www.w3.org/2000/svg">
<path fill-rule="evenodd" clip-rule="evenodd" d="M17.3 101.634L14.9 96.1321H6.2L3.7 101.634H0L10.5 79.724L21.1 101.634H17.3ZM10.6 86.0942C10.5 86.4803 10.4 86.8663 10.3 87.3489C10.2 87.735 9.99999 88.1211 9.79999 88.5071L7.6 93.3331H13.6L11.4 88.5071C11.3 88.2176 11.1 87.8315 11 87.542C10.9 87.2524 10.8 86.8663 10.7 86.5768C10.7 86.4803 10.7 86.4803 10.6 86.3838C10.6 86.2872 10.6 86.1907 10.6 86.0942ZM24.5 101.634V80.4961H30.4C30.7 80.4961 30.9 80.4961 31.2 80.4961C31.5 80.4961 31.7 80.4961 32 80.4961C32.6 80.4961 33.2 80.5927 33.8 80.7857C34.4 80.8822 34.9 81.1718 35.4 81.5578C36.1 82.0404 36.6 82.6195 36.9 83.2952C37.3 83.9708 37.5 84.7429 37.5 85.5151V85.6116V85.7081C37.5 86.6733 37.2 87.6385 36.7 88.5071C36.2 89.3758 35.4 89.9549 34.4 90.341C35.7 90.6306 36.6 91.2097 37.3 92.1748C38 93.14 38.4 94.2017 38.4 95.3599C38.4 95.4565 38.4 95.4565 38.4 95.553C38.4 95.6495 38.4 95.6495 38.4 95.746C38.4 95.8425 38.4 95.8425 38.4 95.939C38.4 96.0356 38.4 96.0356 38.4 96.1321C38.3 97.0008 38.1 97.7729 37.7 98.545C37.3 99.3172 36.7 99.9928 35.9 100.475C35.4 100.765 34.9 101.055 34.3 101.151C33.7 101.344 33.1 101.441 32.4 101.441C32.1 101.441 31.7 101.441 31.4 101.537C31.1 101.537 30.8 101.537 30.4 101.537H24.5V101.634ZM28 98.7381C28.1 98.7381 28.2 98.7381 28.4 98.7381C28.5 98.7381 28.6 98.7381 28.8 98.7381C28.8 98.7381 28.8 98.7381 28.9 98.7381C28.9 98.7381 28.9 98.7381 29 98.7381C29.1 98.7381 29.2 98.7381 29.3 98.7381C29.4 98.7381 29.5 98.7381 29.6 98.7381C29.8 98.7381 29.9 98.7381 30.1 98.7381C30.3 98.7381 30.4 98.7381 30.6 98.7381C31.7 98.7381 32.7 98.4485 33.6 98.0625C34.5 97.6764 35 96.8077 35 95.4565V95.3599C35 94.0087 34.6 93.14 33.7 92.754C32.8 92.3679 31.8 92.0783 30.7 92.0783C30.6 92.0783 30.4 92.0783 30.3 92.0783C30.1 92.0783 30 92.0783 29.9 92.0783H28.3V98.7381H28ZM28 83.3917V89.4723C28.1 89.4723 28.2 89.4723 28.3 89.4723C28.4 89.4723 28.5 89.4723 28.6 89.4723C28.7 89.4723 28.8 89.4723 28.9 89.4723C29 89.4723 29.1 89.4723 29.3 89.4723C29.5 89.4723 29.6 89.4723 29.8 89.4723C30 89.4723 30.1 89.4723 30.3 89.4723C31.2 89.4723 32 89.1828 32.8 88.8932C33.6 88.5072 33.9 87.8315 34 86.8663V86.4803C34 85.129 33.5 84.3569 32.6 83.9708C31.7 83.5847 30.7 83.4882 29.6 83.3917H29.5H29.4H28ZM60.4 85.6116C59.4 84.8395 58.3 84.1638 57.2 83.7778C56.1 83.3917 54.9 83.1021 53.7 83.1021C53.4 83.1021 53.1 83.1021 52.8 83.1021C52.5 83.1021 52.2 83.1987 51.9 83.1987C49.9 83.5847 48.4 84.4534 47.3 85.9012C46.2 87.3489 45.7 88.8932 45.6 90.6305C45.6 90.7271 45.6 90.7271 45.6 90.8236C45.6 90.9201 45.6 90.9201 45.6 91.0166C45.6 91.1131 45.6 91.1131 45.6 91.2097C45.6 91.3062 45.6 91.3062 45.6 91.4027C45.7 92.947 46.2 94.3948 47.1 95.746C48 97.0973 49.4 98.0625 51.1 98.545C51.3 98.545 51.5 98.6416 51.7 98.6416C51.9 98.6416 52.1 98.7381 52.3 98.7381C52.5 98.7381 52.7 98.7381 52.9 98.8346C53.1 98.8346 53.3 98.8346 53.5 98.8346C54.8 98.8346 56 98.545 57.2 98.0625C58.4 97.5799 59.5 96.9042 60.5 96.1321V99.9928C59.8 100.475 59 100.861 58.3 101.055C57.5 101.344 56.7 101.537 55.9 101.73C55.5 101.73 55.1 101.827 54.8 101.827C54.4 101.827 54.1 101.923 53.7 101.923C50.9 101.923 48.3 101.055 46 99.3172C43.7 97.5799 42.4 95.1669 42.1 91.9818C42.1 91.8853 42.1 91.7888 42.1 91.6923C42.1 91.5957 42.1 91.4992 42.1 91.4027C42.1 91.3062 42.1 91.2097 42.1 91.2097C42.1 91.1131 42.1 91.0166 42.1 90.9201C42.1 88.1211 43.1 85.7081 45 83.5847C46.9 81.4613 49.3 80.3031 52.3 80.0136C52.4 80.0136 52.4 80.0136 52.5 80.0136C52.6 80.0136 52.6 80.0136 52.7 80.0136C52.9 80.0136 53.1 80.0136 53.3 80.0136C53.5 80.0136 53.7 80.0136 53.8 80.0136C55 80.0136 56.2 80.2066 57.4 80.5927C58.5 80.9787 59.6 81.4613 60.8 82.137L60.4 85.6116Z" fill="#42436F"/>
<path fill-rule="evenodd" clip-rule="evenodd" d="M34.4 17.5663L54.5 26.3495C51.6 29.6311 49.9 33.6848 49.9 38.1247C49.9 43.5297 52.5 48.4521 56.8 52.0233C61.2 55.691 67.2 58.0074 73.9 58.0074C76.1 58.0074 78.3 57.7178 80.3 57.3318C82.4 56.8492 84.4 56.1736 86.2 55.3049C87.5 54.7258 89 55.1119 89.7 56.2701C90.9 58.2004 91.8 60.4204 92.6 62.7368C92.6 58.7795 92.2 55.4979 91.8 52.9885C91.7 52.1198 91.9 51.3476 92.5 50.7685C94.2 49.0312 95.6 47.0043 96.6 44.7844C97.5 42.7575 98 40.4411 98 38.1247C98 33.6848 96.3 29.6311 93.3 26.3495L101 22.9713V48.7417C100.3 49.1277 99.9 49.8034 99.9 50.672C99.9 51.9268 100.9 52.8919 102.2 52.8919C103.5 52.8919 104.5 51.9268 104.5 50.672C104.5 49.8999 104 49.1277 103.4 48.7417V21.9096L113.6 17.4698L74.1 0L34.4 17.5663ZM58 24.4191C68.9 19.5932 79.4 19.2071 89.5 24.4191V29.438C79.4 24.8052 68.9 25.0947 58 29.5345V24.4191ZM91.8 30.5962C93.3 32.8162 94.1 35.3256 94.1 38.1247C94.1 39.9585 93.7 41.6958 93 43.3366C92.2 45.1705 91.1 46.7148 89.7 48.1626C88.8 49.0312 88.3 50.0929 88 51.2511C86.8 51.1546 85.5 51.3477 84.4 51.9268C82.8 52.6989 81.1 53.278 79.4 53.6641C77.6 54.0502 75.7 54.2432 73.9 54.2432C68.6 54.2432 63.3 52.6024 59.3 49.2243C55.9 46.3287 53.7 42.468 53.7 38.0281C53.7 35.5187 54.4 33.1057 55.7 30.9823V24.3226C55.7 23.4539 56.2 22.6818 57 22.2957C68.2 17.2767 79.5 16.6976 90.5 22.3922C91.3 22.7783 91.7 23.5504 91.7 24.3226V30.5962H91.8Z" fill="url(#paint0_linear)"/>
<path d="M68 67.867H144C149.523 67.867 154 72.3442 154 77.867V112.987H78C72.4772 112.987 68 108.51 68 102.987V67.867Z" fill="url(#paint1_linear)"/>
<path d="M88.15 92.47L89.77 94.99C88.63 96.55 86.84 97.33 84.4 97.33C82.22 97.33 80.45 96.68 79.09 95.38C77.75 94.1 77.08 92.39 77.08 90.25C77.08 88.23 77.74 86.55 79.06 85.21C80.38 83.85 82.05 83.17 84.07 83.17C86.47 83.17 88.28 83.78 89.5 85L87.88 87.73C86.96 86.85 85.84 86.41 84.52 86.41C83.52 86.41 82.64 86.77 81.88 87.49C81.14 88.17 80.77 89.09 80.77 90.25C80.77 91.41 81.15 92.35 81.91 93.07C82.71 93.77 83.63 94.12 84.67 94.12C86.01 94.12 87.17 93.57 88.15 92.47ZM93.5891 86.98L92.7191 84.46C94.1791 83.6 95.7691 83.17 97.4891 83.17C99.3691 83.17 100.739 83.63 101.599 84.55C102.459 85.47 102.889 86.88 102.889 88.78V97H99.8891V95.44C99.0891 96.6 97.7591 97.18 95.8991 97.18C94.6191 97.18 93.5891 96.81 92.8091 96.07C92.0491 95.31 91.6691 94.3 91.6691 93.04C91.6691 91.64 92.1191 90.56 93.0191 89.8C93.9191 89.04 95.1091 88.66 96.5891 88.66C97.8091 88.66 98.8291 88.95 99.6491 89.53C99.6891 88.33 99.5091 87.45 99.1091 86.89C98.7291 86.33 98.0691 86.05 97.1291 86.05C96.0891 86.05 94.9091 86.36 93.5891 86.98ZM97.0391 94.27C98.1991 94.27 99.0691 93.86 99.6491 93.04V91.66C99.0891 91.22 98.2991 91 97.2791 91C96.6391 91 96.1191 91.15 95.7191 91.45C95.3191 91.75 95.1191 92.16 95.1191 92.68C95.1191 93.16 95.2991 93.55 95.6591 93.85C96.0191 94.13 96.4791 94.27 97.0391 94.27ZM126.916 88.18V97H123.466V89.08C123.466 87.36 122.696 86.5 121.156 86.5C119.836 86.5 118.906 87.02 118.366 88.06C118.366 88.1 118.366 88.26 118.366 88.54C118.386 88.8 118.396 88.97 118.396 89.05V97H114.946V88.84C114.946 88.12 114.746 87.55 114.346 87.13C113.966 86.71 113.416 86.5 112.696 86.5C111.436 86.5 110.496 86.98 109.876 87.94V97H106.426V83.5H109.876V85C110.916 83.84 112.326 83.26 114.106 83.26C115.086 83.26 115.916 83.46 116.596 83.86C117.296 84.24 117.776 84.76 118.036 85.42C119.136 83.98 120.656 83.26 122.596 83.26C125.476 83.26 126.916 84.9 126.916 88.18ZM133.87 103H130.42V83.5H133.87V84.79C134.31 84.31 134.91 83.92 135.67 83.62C136.43 83.32 137.22 83.17 138.04 83.17C139.9 83.17 141.38 83.81 142.48 85.09C143.6 86.39 144.16 88.04 144.16 90.04C144.16 92.14 143.5 93.88 142.18 95.26C140.86 96.64 139.14 97.33 137.02 97.33C135.66 97.33 134.61 97.11 133.87 96.67V103ZM136.96 86.41C135.76 86.41 134.73 86.9 133.87 87.88V93.34C134.69 93.86 135.64 94.12 136.72 94.12C137.86 94.12 138.77 93.75 139.45 93.01C140.15 92.27 140.5 91.31 140.5 90.13C140.5 89.01 140.18 88.11 139.54 87.43C138.92 86.75 138.06 86.41 136.96 86.41Z" fill="white"/>
<defs>
<linearGradient id="paint0_linear" x1="74" y1="0" x2="74" y2="62.7368" gradientUnits="userSpaceOnUse">
<stop stop-color="#9DD115"/>
<stop offset="1" stop-color="#02A238"/>
</linearGradient>
<linearGradient id="paint1_linear" x1="111" y1="67.867" x2="111" y2="112.987" gradientUnits="userSpaceOnUse">
<stop stop-color="#9CC930"/>
<stop offset="1" stop-color="#07A03F"/>
</linearGradient>
</defs>
</svg>
