<svg width="60" height="60" viewBox="0 0 60 60" fill="none" xmlns="http://www.w3.org/2000/svg">
<g clip-path="url(#clip0)">
<path d="M34.6802 14.5239C28.6061 14.5239 23.6646 19.4655 23.6646 25.5396C23.6646 31.6136 28.6061 36.5552 34.6802 36.5552C40.7542 36.5552 45.6958 31.6136 45.6958 25.5396C45.6958 19.4655 40.7542 14.5239 34.6802 14.5239ZM34.6802 34.2114C29.8984 34.2114 26.0083 30.3214 26.0083 25.5396C26.0083 20.7578 29.8984 16.8677 34.6802 16.8677C39.462 16.8677 43.3521 20.7578 43.3521 25.5396C43.3521 30.3214 39.462 34.2114 34.6802 34.2114Z" fill="white"/>
<path d="M58.8753 44.6288L48.7161 34.4696C50.3645 31.8878 51.3208 28.8235 51.3208 25.5396C51.3208 22.0505 50.2405 18.8095 48.3984 16.1316V1.17188C48.3984 0.524597 47.8738 0 47.2266 0H5.50781C2.53555 0 0.117188 2.41837 0.117188 5.39062V54.6094C0.117188 57.5816 2.53555 60 5.50781 60H47.2266C47.8738 60 48.3984 59.4754 48.3984 58.8281V46.1453L52.8786 50.6255C53.7053 51.4522 54.7911 51.8655 55.8769 51.8655C56.9627 51.8655 58.0486 51.4522 58.8753 50.6255C60.5283 48.972 60.5283 46.2817 58.8753 44.6288ZM49.9498 39.0179L47.2678 41.7L44.5189 38.9511C45.542 38.1985 46.4763 37.3325 47.3026 36.3707L49.9498 39.0179ZM34.6802 39.8364C26.7966 39.8364 20.3833 33.4232 20.3833 25.5396C20.3833 17.6564 26.7966 11.2427 34.6802 11.2427C42.5633 11.2427 48.9771 17.6564 48.9771 25.5396C48.9771 33.4232 42.5638 39.8364 34.6802 39.8364ZM5.50781 2.34375H6.44531V49.2188H5.50781C4.37759 49.2188 3.3284 49.5689 2.46094 50.1654V5.39062C2.46094 3.71063 3.82782 2.34375 5.50781 2.34375ZM26.4546 51.5625H31.1719V54.4839L29.6402 52.9587C29.1829 52.5032 28.4436 52.5032 27.9863 52.9587L26.4546 54.4839V51.5625ZM28.813 55.443L31.0359 57.6562H26.5901L28.813 55.443ZM46.0547 57.6562H33.4612C33.4964 57.5446 33.5156 57.426 33.5156 57.3047V51.5625H46.0547V57.6562ZM46.0547 49.2188H20.8008C20.1535 49.2188 19.6289 49.7433 19.6289 50.3906C19.6289 51.0379 20.1535 51.5625 20.8008 51.5625H24.1109V57.3047C24.1109 57.426 24.1296 57.5446 24.1649 57.6562H5.50781C3.82736 57.6562 2.46094 56.2894 2.46094 54.6094C2.46094 52.9294 3.82736 51.5625 5.50781 51.5625H11.4258C12.0726 51.5625 12.5977 51.0379 12.5977 50.3906C12.5977 49.7433 12.0726 49.2188 11.4258 49.2188H8.78906V2.34375H46.0547V13.4052C43.0769 10.6123 39.0752 8.89893 34.6802 8.89893C25.5043 8.89893 18.0396 16.3641 18.0396 25.5396C18.0396 34.7154 25.5043 42.1802 34.6802 42.1802C37.4991 42.1802 40.1559 41.4748 42.4855 40.2324L46.0542 43.8011V49.2188H46.0547ZM57.2177 48.9679C56.478 49.7072 55.275 49.7076 54.5357 48.9679L48.9249 43.3571L51.6069 40.675L57.2177 46.2859C57.9575 47.0251 57.9575 48.2286 57.2177 48.9679Z" fill="white"/>
<path d="M13.2028 8.63281H22.9688C23.6156 8.63281 24.1406 8.10822 24.1406 7.46094C24.1406 6.81366 23.6156 6.28906 22.9688 6.28906H13.2028C12.556 6.28906 12.0309 6.81366 12.0309 7.46094C12.0309 8.10822 12.556 8.63281 13.2028 8.63281Z" fill="white"/>
<path d="M19.2577 12.6172C19.2577 11.9699 18.7331 11.4453 18.0858 11.4453H13.2028C12.556 11.4453 12.0309 11.9699 12.0309 12.6172C12.0309 13.2645 12.556 13.7891 13.2028 13.7891H18.0858C18.7331 13.7891 19.2577 13.264 19.2577 12.6172Z" fill="white"/>
<path d="M16.1133 49.2188C15.8047 49.2188 15.5026 49.3442 15.2847 49.5621C15.0668 49.78 14.9414 50.0826 14.9414 50.3906C14.9414 50.6987 15.0664 51.0013 15.2847 51.2192C15.5026 51.4371 15.8047 51.5625 16.1133 51.5625C16.4214 51.5625 16.7239 51.4371 16.9414 51.2192C17.1597 51.0013 17.2852 50.6987 17.2852 50.3906C17.2852 50.0826 17.1597 49.78 16.9414 49.5621C16.7239 49.3442 16.4214 49.2188 16.1133 49.2188Z" fill="white"/>
</g>
<defs>
<clipPath id="clip0">
<rect width="60" height="60" fill="white"/>
</clipPath>
</defs>
</svg>
