<svg width="60" height="60" viewBox="0 0 60 60" fill="none" xmlns="http://www.w3.org/2000/svg">
<g clip-path="url(#clip0)">
<path d="M59.961 33.7213C59.9997 33.5471 59.9905 33.3656 59.934 33.1963C59.2482 23.2884 51.0498 15.5788 41.1184 15.5027C37.8037 4.39173 26.1094 -1.92863 14.9984 1.38605C3.88727 4.70072 -2.43295 16.3951 0.881594 27.5061C2.6268 33.3561 6.83183 38.1567 12.4011 40.6572C10.4314 41.7109 8.60154 43.0073 6.9542 44.5161L4.10127 47.131C2.8798 48.2505 2.79705 50.1481 3.91652 51.3695C4.04165 51.506 4.17914 51.6308 4.32726 51.7419L7.54319 54.1538C12.1723 57.611 17.7923 59.4842 23.5698 59.4957H26.4317C32.2086 59.4837 37.8279 57.6105 42.4564 54.1538L43.5883 53.3049C52.9975 52.0306 60.0122 43.9913 60 34.4963C60 34.2343 59.971 33.9803 59.961 33.7213ZM54.7171 24.4965C56.5272 26.962 57.6331 29.873 57.917 32.9183L57.069 33.3423L52.1591 30.0694L53.7541 24.4965H54.7171ZM47.9512 19.0016C49.8421 19.8485 51.5628 21.0328 53.0291 22.4966H53.0001C52.5536 22.4969 52.1615 22.7932 52.0392 23.2225L50.1652 29.7804L46.9523 31.2624L42.0004 27.9614V24.0175L47.5743 20.1176C47.9289 19.867 48.0812 19.4161 47.9512 19.0016ZM25.3638 23.7295C25.2565 23.8172 25.1687 23.9262 25.1058 24.0495C25.0942 24.0853 25.0844 24.1217 25.0768 24.1585L22.4148 21.4966L25.5918 18.3197C26.4367 19.0879 27.3427 19.7861 28.3007 20.4076H28.2987C27.1947 21.3973 26.2099 22.5121 25.3638 23.7295ZM24.0478 25.9565C22.9138 28.2003 22.2402 30.6483 22.0669 33.1563C21.1417 30.538 19.7022 28.1312 17.833 26.0775L20.9989 22.9076L24.0478 25.9565ZM26.4087 25.8185L27.2087 26.2185L28.8227 30.2524L24.8008 34.2793L24.0288 33.8933C24.1269 31.0439 24.9458 28.2657 26.4087 25.8185ZM24.5528 36.3862C24.9378 36.5784 25.4026 36.5027 25.7068 36.1983L30.2407 31.6654L34.1736 33.2383L36.0385 39.7652C36.0566 39.8158 36.0795 39.8647 36.1065 39.9112C32.6212 38.3175 28.8332 37.4937 25.0008 37.4962C24.7648 37.4962 24.5298 37.5062 24.2938 37.5122L24.2918 37.5072C24.2118 37.0592 24.1358 36.6072 24.0918 36.1553L24.5528 36.3862ZM34.8836 31.3724L30.7696 29.7264L28.9297 25.1265C28.8387 24.8986 28.6672 24.7121 28.4477 24.6025L27.5477 24.1505C29.2583 21.9242 31.4915 20.154 34.0496 18.9966C33.9196 19.411 34.0719 19.862 34.4266 20.1126L40.0004 24.0175V27.9614L34.8836 31.3724ZM41.0004 29.6964L45.7343 32.8593C45.7423 32.8803 45.7403 32.9023 45.7503 32.9233C45.7687 32.958 45.7894 32.9914 45.8123 33.0233L44.2463 38.4962H37.7545L36.1625 32.9233L41.0004 29.6964ZM45.5533 18.1347V18.1397L45.8133 18.9106L41.0004 22.2756L36.1875 18.9056L36.4475 18.1347C39.4232 17.2841 42.5776 17.2841 45.5533 18.1347ZM39.0625 15.5967C35.7727 15.937 32.63 17.1359 29.9497 19.0736C28.9017 18.4467 27.9166 17.7203 27.0077 16.9047L35.1185 8.79688C36.8934 10.7635 38.2368 13.0797 39.0625 15.5967ZM33.6926 7.38991L25.5928 15.4897C22.7613 12.3504 21.0615 8.35414 20.7639 4.13698L20.6479 2.52302C25.4565 2.4289 30.1208 4.16911 33.6926 7.38991ZM18.6539 2.66902L18.7689 4.27898C19.099 8.977 21.004 13.4263 24.1758 16.9077L21.0009 20.0826L8.30917 7.38991C11.1902 4.79059 14.8024 3.14213 18.6539 2.66902ZM6.8952 8.80388L19.5869 21.4966L16.42 24.6635C12.9353 21.493 8.48317 19.5904 3.78328 19.2636L2.17231 19.1486C2.64605 15.297 4.29514 11.6848 6.8952 8.80388ZM2.02732 21.1436L3.64128 21.2586C7.85956 21.5533 11.8582 23.2503 15.001 26.0795L6.8922 34.1893C3.67228 30.6166 1.93282 25.9524 2.02732 21.1436ZM8.29517 35.6173L16.42 27.4964C18.9968 30.3676 20.6339 33.9581 21.1119 37.7862C18.9783 38.0988 16.8907 38.6696 14.895 39.4862C12.4561 38.6561 10.2109 37.34 8.29517 35.6173ZM44.6133 50.0179C44.5716 50.0634 44.5257 50.1049 44.4763 50.1421L41.2554 52.555C36.9736 55.7523 31.7755 57.4849 26.4317 57.4959H23.5698C18.2261 57.4849 13.0279 55.7523 8.74616 52.555L5.52924 50.1421C5.08737 49.8107 4.99775 49.184 5.32912 48.7421C5.36611 48.6927 5.40774 48.6468 5.45324 48.6051L8.30117 45.9902C10.337 44.1347 12.6692 42.6334 15.201 41.5483C15.3529 41.5199 15.496 41.4566 15.619 41.3633C24.4733 37.7062 34.6444 39.5105 41.7004 45.9902L44.5523 48.6051C44.9593 48.9783 44.9867 49.6108 44.6133 50.0179ZM43.0474 44.5161C41.3144 42.9291 39.3797 41.5775 37.2935 40.4962H44.5863L46.7863 42.6961L44.9843 46.296L43.0474 44.5161ZM46.6073 50.5369C47.0115 49.6674 46.9518 48.653 46.4483 47.837L48.6182 43.4961H54.3821L54.8271 44.3861C52.7898 47.2376 49.9177 49.3868 46.6073 50.5369ZM56.0571 42.3791L55.9001 42.0491C55.7298 41.7085 55.3809 41.494 55.0001 41.4961H48.4142L46.1233 39.2052L47.8862 33.0343L50.9112 31.6394L56.445 35.3283C56.743 35.5268 57.1244 35.5508 57.445 35.3913L57.968 35.1293C57.8804 37.6583 57.2274 40.1355 56.0571 42.3791Z" fill="white"/>
<path d="M34.0006 47.496H33.0006V46.4961C33.0006 45.9438 32.5529 45.4961 32.0006 45.4961C31.4484 45.4961 31.0007 45.9438 31.0007 46.4961V47.496H29.0007V46.4961C29.0007 45.9438 28.553 45.4961 28.0007 45.4961C27.4485 45.4961 27.0008 45.9438 27.0008 46.4961V47.496H25.0008V46.4961C25.0008 45.9438 24.5531 45.4961 24.0008 45.4961C23.4486 45.4961 23.0009 45.9438 23.0009 46.4961V47.496H21.0009V46.4961C21.0009 45.9438 20.5532 45.4961 20.0009 45.4961C19.4487 45.4961 19.0009 45.9438 19.0009 46.4961V47.496H17.001V46.4961C17.001 45.9438 16.5533 45.4961 16.001 45.4961C15.4488 45.4961 15.001 45.9438 15.001 46.4961V47.496H14.0011C13.4488 47.496 13.0011 47.9438 13.0011 48.496C13.0011 49.0483 13.4488 49.496 14.0011 49.496H15.001V50.496C15.001 51.0482 15.4488 51.496 16.001 51.496C16.5533 51.496 17.001 51.0482 17.001 50.496V49.496H19.0009V50.496C19.0009 51.0482 19.4487 51.496 20.0009 51.496C20.5532 51.496 21.0009 51.0482 21.0009 50.496V49.496H23.0009V50.496C23.0009 51.0482 23.4486 51.496 24.0008 51.496C24.5531 51.496 25.0008 51.0482 25.0008 50.496V49.496H27.0008V50.496C27.0008 51.0482 27.4485 51.496 28.0007 51.496C28.553 51.496 29.0007 51.0482 29.0007 50.496V49.496H31.0007V50.496C31.0007 51.0482 31.4484 51.496 32.0006 51.496C32.5529 51.496 33.0006 51.0482 33.0006 50.496V49.496H34.0006C34.5528 49.496 35.0006 49.0483 35.0006 48.496C35.0006 47.9438 34.5528 47.496 34.0006 47.496Z" fill="white"/>
</g>
<defs>
<clipPath id="clip0">
<rect width="60" height="60" fill="white"/>
</clipPath>
</defs>
</svg>
