<svg width="40" height="40" viewBox="0 0 40 40" fill="none" xmlns="http://www.w3.org/2000/svg">
<circle cx="21" cy="19" r="15" fill="white"/>
<path d="M19.9999 0.799805C9.3959 0.799805 0.799896 9.39581 0.799896 19.9998C0.799896 30.6038 9.3959 39.1998 19.9999 39.1998C30.6039 39.1998 39.1999 30.6038 39.1999 19.9998C39.1999 9.39581 30.6039 0.799805 19.9999 0.799805ZM27.3839 22.4618C27.3839 22.4618 29.0819 24.1378 29.4999 24.9158C29.5119 24.9318 29.5179 24.9478 29.5219 24.9558C29.6919 25.2418 29.7319 25.4638 29.6479 25.6298C29.5079 25.9058 29.0279 26.0418 28.8639 26.0538H25.8639C25.6559 26.0538 25.2199 25.9998 24.6919 25.6358C24.2859 25.3518 23.8859 24.8858 23.4959 24.4318C22.9139 23.7558 22.4099 23.1718 21.9019 23.1718C21.8374 23.1717 21.7732 23.1818 21.7119 23.2018C21.3279 23.3258 20.8359 23.8738 20.8359 25.3338C20.8359 25.7898 20.4759 26.0518 20.2219 26.0518H18.8479C18.3799 26.0518 15.9419 25.8878 13.7819 23.6098C11.1379 20.8198 8.7579 15.2238 8.7379 15.1718C8.5879 14.8098 8.8979 14.6158 9.2359 14.6158H12.2659C12.6699 14.6158 12.8019 14.8618 12.8939 15.0798C13.0019 15.3338 13.3979 16.3438 14.0479 17.4798C15.1019 19.3318 15.7479 20.0838 16.2659 20.0838C16.363 20.0827 16.4584 20.058 16.5439 20.0118C17.2199 19.6358 17.0939 17.2258 17.0639 16.7258C17.0639 16.6318 17.0619 15.6478 16.7159 15.1758C16.4679 14.8338 16.0459 14.7038 15.7899 14.6558C15.8935 14.5128 16.03 14.3969 16.1879 14.3178C16.6519 14.0858 17.4879 14.0518 18.3179 14.0518H18.7799C19.6799 14.0638 19.9119 14.1218 20.2379 14.2038C20.8979 14.3618 20.9119 14.7878 20.8539 16.2458C20.8359 16.6598 20.8179 17.1278 20.8179 17.6798C20.8179 17.7998 20.8119 17.9278 20.8119 18.0638C20.7919 18.8058 20.7679 19.6478 21.2919 19.9938C21.3602 20.0367 21.4392 20.0595 21.5199 20.0598C21.7019 20.0598 22.2499 20.0598 23.7339 17.5138C24.1916 16.6943 24.5893 15.8428 24.9239 14.9658C24.9539 14.9138 25.0419 14.7538 25.1459 14.6918C25.2226 14.6527 25.3078 14.6328 25.3939 14.6338H28.9559C29.3439 14.6338 29.6099 14.6918 29.6599 14.8418C29.7479 15.0798 29.6439 15.8058 28.0179 18.0078L27.2919 18.9658C25.8179 20.8978 25.8179 20.9958 27.3839 22.4618Z" fill="url(#paint0_linear)"/>
<defs>
<linearGradient id="paint0_linear" x1="19.9999" y1="0.799805" x2="19.9999" y2="39.1998" gradientUnits="userSpaceOnUse">
<stop stop-color="#86CB1D"/>
<stop offset="1" stop-color="#20A93B"/>
</linearGradient>
</defs>
</svg>
