<svg width="30" height="30" viewBox="0 0 30 30" fill="none" xmlns="http://www.w3.org/2000/svg">
<g clip-path="url(#clip0)">
<path d="M0.696724 30C0.528267 30 0.364388 29.9334 0.242852 29.8105C0.0826342 29.6484 0.0208362 29.4131 0.0810321 29.1932L2.03133 22.0713C0.817116 19.8756 0.176934 17.3918 0.177849 14.8705C0.181282 6.67076 6.8541 0 15.0531 0C19.0299 0.00160218 22.7667 1.55067 25.5753 4.36134C28.3834 7.17224 29.9293 10.9087 29.9281 14.8824C29.9245 23.0823 23.2517 29.7535 15.0531 29.7535C15.0531 29.7535 15.0469 29.7535 15.0467 29.7535C12.6519 29.7526 10.2777 29.1689 8.16377 28.0634L0.858544 29.9792C0.804985 29.9931 0.750512 30 0.696724 30Z" fill="#E5E5E5"/>
<path d="M0.696945 29.3617L2.7166 21.9864C1.47079 19.8278 0.815506 17.3792 0.816422 14.8707C0.819626 7.02303 7.20589 0.638367 15.0533 0.638367C18.8615 0.639969 22.4359 2.12221 25.1239 4.81248C27.8117 7.50276 29.2914 11.0788 29.29 14.8821C29.2866 22.7296 22.8994 29.1152 15.0533 29.1152C15.0529 29.1152 15.0536 29.1152 15.0533 29.1152H15.0471C12.6645 29.1142 10.3235 28.5166 8.24409 27.3825L0.696945 29.3617ZM8.5936 24.806L9.02596 25.0621C10.8424 26.1402 12.925 26.7103 15.0488 26.7114H15.0533C21.5751 26.7114 26.8833 21.4041 26.8861 14.8812C26.8872 11.7201 25.6577 8.74765 23.4235 6.5117C21.1892 4.27576 18.2185 3.04369 15.0577 3.04231C8.53065 3.04231 3.22266 8.34894 3.22014 14.8716C3.21922 17.1069 3.84453 19.2835 5.02922 21.1672L5.31075 21.6149L4.11507 25.9802L8.5936 24.806Z" fill="white"/>
<path d="M1.19202 28.8648L3.14186 21.7445C1.93886 19.6608 1.30646 17.2966 1.30714 14.8753C1.31012 7.2993 7.47551 1.13574 15.0508 1.13574C18.7276 1.13734 22.1784 2.56831 24.7728 5.16544C27.3679 7.76256 28.7961 11.2148 28.7947 14.886C28.7915 22.4623 22.6259 28.6265 15.0515 28.6265C15.0508 28.6265 15.0517 28.6265 15.0515 28.6265H15.0453C12.7453 28.6256 10.4851 28.0484 8.47778 26.9543L1.19202 28.8648Z" fill="#64B161"/>
<path d="M0.696945 29.3617L2.7166 21.9864C1.47079 19.8278 0.815506 17.3792 0.816422 14.8707C0.819626 7.02303 7.20589 0.638367 15.0533 0.638367C18.8615 0.639969 22.4359 2.12221 25.1239 4.81248C27.8117 7.50276 29.2914 11.0788 29.29 14.8821C29.2866 22.7296 22.8994 29.1152 15.0533 29.1152C15.0529 29.1152 15.0536 29.1152 15.0533 29.1152H15.0471C12.6645 29.1142 10.3235 28.5166 8.24409 27.3825L0.696945 29.3617ZM8.5936 24.806L9.02596 25.0621C10.8424 26.1402 12.925 26.7103 15.0488 26.7114H15.0533C21.5751 26.7114 26.8833 21.4041 26.8861 14.8812C26.8872 11.7201 25.6577 8.74765 23.4235 6.5117C21.1892 4.27576 18.2185 3.04369 15.0577 3.04231C8.53065 3.04231 3.22266 8.34894 3.22014 14.8716C3.21922 17.1069 3.84453 19.2835 5.02922 21.1672L5.31075 21.6149L4.11507 25.9802L8.5936 24.806Z" fill="white"/>
<path fill-rule="evenodd" clip-rule="evenodd" d="M11.4951 8.92069C11.2287 8.32834 10.9481 8.31644 10.6945 8.30614C10.4871 8.29721 10.2498 8.29767 10.0129 8.29767C9.77577 8.29767 9.39033 8.38694 9.06441 8.74285C8.73825 9.09876 7.81906 9.95935 7.81906 11.7096C7.81906 13.4601 9.09393 15.1513 9.27177 15.3889C9.44961 15.6262 11.7327 19.3328 15.3484 20.7587C18.3533 21.9438 18.9647 21.7081 19.617 21.6488C20.2693 21.5895 21.7216 20.7882 22.018 19.9576C22.3146 19.127 22.3146 18.4152 22.2256 18.2662C22.1365 18.1181 21.8994 18.029 21.5437 17.8512C21.188 17.6734 19.4392 16.8125 19.113 16.694C18.7868 16.5752 18.5497 16.5161 18.3126 16.8723C18.0752 17.228 17.3941 18.029 17.1865 18.2662C16.9789 18.504 16.7713 18.5337 16.4156 18.3557C16.0599 18.1774 14.9142 17.802 13.5551 16.5901C12.4976 15.6473 11.7835 14.4827 11.5759 14.1266C11.3686 13.7709 11.5725 13.5951 11.7323 13.4008C12.02 13.0509 12.5027 12.4217 12.6212 12.1845C12.7398 11.947 12.6805 11.7394 12.5917 11.5613C12.5027 11.3835 11.8112 9.62427 11.4951 8.92069Z" fill="white"/>
</g>
<defs>
<clipPath id="clip0">
<rect width="30" height="30" fill="white"/>
</clipPath>
</defs>
</svg>
